<svg width="540" height="540" viewBox="0 0 540 540" fill="none" xmlns="http://www.w3.org/2000/svg">
<line x1="268.646" y1="481.707" x2="268.646" y2="58.2934" stroke="#DBDBDB" stroke-width="0.87204" stroke-linecap="round"/>
<line x1="61.0483" y1="269.564" x2="477.115" y2="269.564" stroke="#DBDBDB" stroke-width="0.87204" stroke-linecap="round"/>
<circle cx="270.459" cy="270.459" r="269.541" fill="white"/>
<circle opacity="0.3" cx="270" cy="270.919" r="193.776" stroke="#00B2FF" stroke-width="0.918367" stroke-linecap="round"/>
<circle opacity="0.3" cx="270" cy="270.918" r="126.735" stroke="#4C25F4" stroke-width="0.918367" stroke-linecap="round"/>
<circle opacity="0.3" cx="270" cy="270" r="62.449" stroke="#49EB94" stroke-width="0.918367" stroke-linecap="round"/>
<circle cx="269.541" cy="270.459" r="6.88775" fill="white"/>
<path d="M467.221 513L466.347 510.531H462.695L461.821 513H460.561L463.84 504H465.254L468.532 513H467.221ZM463.865 507.266L463.094 509.426H465.948L465.19 507.266L464.534 505.35L463.865 507.266ZM469.695 513V506.571H470.595L470.71 507.459C471.16 506.829 471.88 506.469 472.78 506.469C474.259 506.469 475.223 507.433 475.223 509.207V513H474.066V509.207C474.066 508.114 473.526 507.574 472.587 507.574C471.546 507.574 470.877 508.217 470.852 509.143V513H469.695ZM479.237 513.103C477.771 513.103 476.704 512.036 476.704 510.03V509.541C476.704 507.549 477.784 506.469 479.25 506.469C480.073 506.469 480.741 506.751 481.204 507.317V504H482.361V513H481.461L481.333 512.087C480.883 512.769 480.15 513.103 479.237 513.103ZM479.559 511.997C480.484 511.997 481.166 511.341 481.204 510.133V509.451C481.166 508.23 480.484 507.574 479.559 507.574C478.543 507.574 477.913 508.204 477.913 509.541V510.03C477.913 511.341 478.556 511.997 479.559 511.997ZM484.284 513V506.571H485.184L485.3 507.446C485.737 506.816 486.457 506.469 487.306 506.469H487.949V507.574H487.306C486.123 507.574 485.467 508.217 485.442 509.143V513H484.284ZM491.615 513.103C489.815 513.103 488.657 511.946 488.657 510.03V509.541C488.657 507.639 489.827 506.469 491.615 506.469C493.415 506.469 494.572 507.626 494.572 509.541V510.03C494.572 511.933 493.402 513.103 491.615 513.103ZM491.615 511.997C492.695 511.997 493.363 511.329 493.363 510.03V509.541C493.363 508.256 492.682 507.574 491.615 507.574C490.535 507.574 489.866 508.243 489.866 509.541V510.03C489.866 511.316 490.547 511.997 491.615 511.997ZM496.215 513V506.571H497.372V513H496.215ZM496.793 505.594C496.356 505.594 496.022 505.26 496.022 504.823C496.022 504.386 496.356 504.051 496.793 504.051C497.231 504.051 497.565 504.386 497.565 504.823C497.565 505.26 497.231 505.594 496.793 505.594ZM501.549 513.103C500.083 513.103 499.016 512.036 499.016 510.03V509.541C499.016 507.549 500.096 506.469 501.562 506.469C502.385 506.469 503.053 506.751 503.516 507.317V504H504.673V513H503.773L503.645 512.087C503.195 512.769 502.462 513.103 501.549 513.103ZM501.87 511.997C502.796 511.997 503.477 511.341 503.516 510.133V509.451C503.477 508.23 502.796 507.574 501.87 507.574C500.855 507.574 500.225 508.204 500.225 509.541V510.03C500.225 511.341 500.867 511.997 501.87 511.997Z" fill="#8F8F8F"/>
<path d="M484.435 32V25.5714H485.592V32H484.435ZM485.013 24.5943C484.576 24.5943 484.242 24.26 484.242 23.8229C484.242 23.3857 484.576 23.0514 485.013 23.0514C485.45 23.0514 485.785 23.3857 485.785 23.8229C485.785 24.26 485.45 24.5943 485.013 24.5943ZM491.221 32.1029C488.933 32.1029 487.364 30.5343 487.364 27.8729V27.1271C487.364 24.4914 488.959 22.8971 491.221 22.8971C493.51 22.8971 495.079 24.4657 495.079 27.1271V27.8729C495.079 30.5086 493.484 32.1029 491.221 32.1029ZM491.221 30.9457C492.739 30.9457 493.819 29.8786 493.819 27.8729V27.1271C493.819 25.1471 492.726 24.0543 491.221 24.0543C489.704 24.0543 488.624 25.1214 488.624 27.1271V27.8729C488.624 29.8529 489.73 30.9457 491.221 30.9457ZM499.707 32.1029C497.598 32.1029 496.557 31.1257 496.428 29.1071H497.714C497.829 30.4186 498.408 30.9457 499.707 30.9457C501.095 30.9457 501.725 30.3157 501.725 29.5314C501.725 27.2943 496.557 28.6186 496.557 25.34C496.557 23.9514 497.624 22.8971 499.707 22.8971C501.777 22.8971 502.728 23.8486 502.857 25.6357H501.571C501.429 24.53 500.967 24.0543 499.707 24.0543C498.395 24.0543 497.817 24.62 497.817 25.34C497.817 27.4614 502.985 26.1243 502.985 29.5443C502.985 31.0486 501.931 32.1029 499.707 32.1029Z" fill="#8F8F8F"/>
<rect x="168.979" y="220.408" width="15.6967" height="15.6967" rx="7.84836" fill="#5424F5"/>
<path d="M172.349 229.292V229.235H173.43V229.292C173.43 229.538 173.512 229.731 173.675 229.871C173.841 230.012 174.083 230.082 174.399 230.082C174.701 230.082 174.94 229.989 175.116 229.802C175.295 229.616 175.384 229.34 175.384 228.974C175.384 228.599 175.297 228.324 175.124 228.15C174.952 227.977 174.716 227.89 174.415 227.89C174.192 227.89 174 227.933 173.836 228.02C173.672 228.104 173.531 228.213 173.411 228.346L172.571 228.009L172.855 225.177H176.189V226.05H173.725L173.591 227.388C173.726 227.306 173.879 227.24 174.051 227.189C174.222 227.135 174.418 227.108 174.641 227.108C175.147 227.108 175.578 227.273 175.936 227.602C176.296 227.929 176.476 228.387 176.476 228.974C176.476 229.562 176.277 230.026 175.879 230.365C175.483 230.703 174.989 230.871 174.399 230.871C173.768 230.871 173.269 230.722 172.901 230.423C172.533 230.121 172.349 229.745 172.349 229.292ZM177.122 228.423V228.308C177.122 227.337 177.418 226.559 178.011 225.974C178.604 225.386 179.481 225.092 180.644 225.092H180.72V225.928H180.644C179.859 225.928 179.255 226.108 178.831 226.468C178.407 226.828 178.195 227.422 178.195 228.25V228.442C178.195 229.042 178.296 229.467 178.498 229.718C178.699 229.966 178.96 230.09 179.279 230.09C179.594 230.09 179.839 229.991 180.015 229.794C180.194 229.598 180.283 229.321 180.283 228.963C180.283 228.605 180.198 228.329 180.027 228.135C179.856 227.938 179.613 227.84 179.299 227.84C179.005 227.84 178.743 227.935 178.513 228.124C178.286 228.313 178.172 228.586 178.172 228.944H177.773C177.773 228.377 177.928 227.921 178.237 227.576C178.549 227.231 178.966 227.058 179.49 227.058C180.06 227.058 180.517 227.231 180.862 227.576C181.207 227.918 181.379 228.373 181.379 228.94C181.379 229.507 181.18 229.971 180.782 230.331C180.383 230.691 179.882 230.871 179.279 230.871C178.679 230.871 178.169 230.681 177.75 230.3C177.331 229.917 177.122 229.291 177.122 228.423Z" fill="white"/>
<rect x="171.735" y="289.286" width="15.6967" height="15.6967" rx="7.84836" fill="#5424F5"/>
<path d="M176.894 299.634V295.1L175.476 295.664V294.732L177.499 293.985H177.975V299.634H176.894ZM181.705 299.634V295.1L180.287 295.664V294.732L182.31 293.985H182.786V299.634H181.705Z" fill="white"/>
<rect x="245.204" y="356.327" width="15.6967" height="15.6967" rx="7.84836" fill="#5424F5"/>
<path d="M248.574 365.211V365.153H249.654V365.211C249.654 365.456 249.736 365.649 249.9 365.79C250.066 365.93 250.307 366 250.624 366C250.925 366 251.164 365.907 251.341 365.721C251.519 365.534 251.609 365.258 251.609 364.893C251.609 364.517 251.522 364.243 251.348 364.069C251.177 363.895 250.941 363.808 250.639 363.808C250.417 363.808 250.224 363.852 250.061 363.939C249.897 364.023 249.755 364.131 249.635 364.264L248.796 363.927L249.08 361.095H252.414V361.969H249.949L249.815 363.306C249.951 363.225 250.104 363.158 250.275 363.107C250.446 363.053 250.643 363.027 250.865 363.027C251.371 363.027 251.803 363.191 252.161 363.521C252.521 363.848 252.701 364.305 252.701 364.893C252.701 365.48 252.502 365.944 252.103 366.284C251.707 366.621 251.214 366.79 250.624 366.79C249.993 366.79 249.493 366.64 249.126 366.341C248.758 366.04 248.574 365.663 248.574 365.211ZM255.926 366.675V365.15V364.95V362.475H255.88L254.324 364.628H256.133L256.424 364.571H257.711V365.437H253.258V364.736L255.964 361.095H256.991V366.675H255.926Z" fill="white"/>
<rect x="337.041" y="241.531" width="15.6967" height="15.6967" rx="7.84836" fill="#5424F5"/>
<path d="M340.41 250.415V250.358H341.491V250.415C341.491 250.66 341.573 250.853 341.736 250.994C341.902 251.134 342.144 251.204 342.461 251.204C342.762 251.204 343.001 251.111 343.177 250.925C343.356 250.738 343.445 250.462 343.445 250.097C343.445 249.721 343.359 249.447 343.185 249.273C343.014 249.099 342.777 249.012 342.476 249.012C342.254 249.012 342.061 249.056 341.897 249.143C341.734 249.227 341.592 249.336 341.472 249.468L340.633 249.131L340.916 246.299H344.25V247.173H341.786L341.652 248.51C341.787 248.429 341.941 248.362 342.112 248.311C342.283 248.257 342.48 248.231 342.702 248.231C343.208 248.231 343.64 248.395 343.997 248.725C344.358 249.052 344.538 249.509 344.538 250.097C344.538 250.685 344.338 251.148 343.94 251.488C343.544 251.825 343.051 251.994 342.461 251.994C341.83 251.994 341.33 251.844 340.962 251.546C340.594 251.244 340.41 250.867 340.41 250.415ZM345.176 250.35V250.312H346.26V250.35C346.26 250.621 346.348 250.831 346.524 250.982C346.701 251.13 346.951 251.204 347.276 251.204C347.562 251.204 347.799 251.129 347.988 250.978C348.177 250.828 348.272 250.595 348.272 250.281C348.272 249.977 348.165 249.748 347.95 249.595C347.738 249.439 347.466 249.361 347.134 249.361H346.551V248.591H347.095C347.397 248.591 347.638 248.517 347.82 248.369C348.001 248.22 348.092 248.015 348.092 247.752C348.092 247.486 348.014 247.29 347.858 247.165C347.702 247.038 347.508 246.974 347.276 246.974C347.007 246.974 346.797 247.04 346.643 247.173C346.49 247.303 346.413 247.491 346.413 247.736V247.775H345.325V247.736C345.325 247.31 345.504 246.944 345.861 246.64C346.222 246.336 346.693 246.184 347.276 246.184C347.904 246.184 348.379 246.325 348.701 246.606C349.023 246.887 349.184 247.25 349.184 247.694C349.184 247.945 349.111 248.182 348.966 248.407C348.822 248.629 348.594 248.808 348.28 248.943V248.959C348.612 249.043 348.877 249.203 349.077 249.438C349.276 249.673 349.376 249.964 349.376 250.312C349.376 250.835 349.172 251.247 348.766 251.546C348.36 251.844 347.863 251.994 347.276 251.994C346.606 251.994 346.089 251.839 345.724 251.53C345.358 251.221 345.176 250.828 345.176 250.35Z" fill="white"/>
<rect x="210.306" y="175.408" width="15.6967" height="15.6967" rx="7.84836" fill="#5424F5"/>
<path d="M213.63 184.227V184.189H214.714V184.227C214.714 184.498 214.802 184.709 214.979 184.86C215.155 185.008 215.405 185.082 215.73 185.082C216.016 185.082 216.254 185.007 216.443 184.856C216.632 184.705 216.726 184.473 216.726 184.158C216.726 183.854 216.619 183.626 216.404 183.472C216.192 183.317 215.92 183.239 215.588 183.239H215.006V182.468H215.55C215.851 182.468 216.093 182.394 216.274 182.246C216.455 182.098 216.546 181.892 216.546 181.629C216.546 181.363 216.468 181.168 216.312 181.043C216.156 180.915 215.962 180.851 215.73 180.851C215.462 180.851 215.251 180.918 215.098 181.05C214.944 181.181 214.868 181.368 214.868 181.614V181.652H213.779V181.614C213.779 181.187 213.958 180.822 214.316 180.518C214.676 180.214 215.147 180.062 215.73 180.062C216.358 180.062 216.834 180.202 217.155 180.483C217.477 180.764 217.638 181.127 217.638 181.572C217.638 181.822 217.565 182.06 217.42 182.284C217.277 182.507 217.048 182.685 216.734 182.821V182.836C217.066 182.921 217.332 183.08 217.531 183.315C217.73 183.55 217.83 183.842 217.83 184.189C217.83 184.713 217.627 185.124 217.221 185.423C216.814 185.722 216.317 185.871 215.73 185.871C215.06 185.871 214.543 185.717 214.178 185.408C213.812 185.098 213.63 184.705 213.63 184.227ZM218.491 184.258C218.491 183.926 218.588 183.644 218.782 183.411C218.979 183.176 219.235 183.002 219.552 182.89V182.875C219.297 182.772 219.086 182.61 218.92 182.388C218.756 182.163 218.675 181.887 218.675 181.56C218.675 181.121 218.852 180.762 219.207 180.483C219.562 180.202 220.016 180.062 220.568 180.062C221.12 180.062 221.571 180.202 221.921 180.483C222.271 180.764 222.446 181.122 222.446 181.556C222.446 181.886 222.361 182.162 222.193 182.384C222.024 182.604 221.815 182.767 221.564 182.875V182.89C221.886 183 222.144 183.172 222.338 183.407C222.532 183.642 222.629 183.926 222.629 184.258C222.629 184.764 222.437 185.16 222.051 185.446C221.668 185.73 221.173 185.871 220.568 185.871C219.962 185.871 219.464 185.73 219.073 185.446C218.685 185.16 218.491 184.764 218.491 184.258ZM219.579 184.208C219.579 184.474 219.663 184.69 219.832 184.856C220.001 185.022 220.246 185.105 220.568 185.105C220.89 185.105 221.132 185.022 221.296 184.856C221.459 184.69 221.541 184.474 221.541 184.208C221.541 183.932 221.459 183.71 221.296 183.541C221.132 183.37 220.89 183.285 220.568 183.285C220.246 183.285 220.001 183.37 219.832 183.541C219.663 183.71 219.579 183.932 219.579 184.208ZM219.736 181.66C219.736 181.91 219.806 182.116 219.947 182.277C220.09 182.438 220.297 182.518 220.568 182.518C220.839 182.518 221.042 182.438 221.177 182.277C221.315 182.116 221.384 181.91 221.384 181.66C221.384 181.417 221.315 181.218 221.177 181.062C221.042 180.906 220.839 180.828 220.568 180.828C220.297 180.828 220.09 180.906 219.947 181.062C219.806 181.218 219.736 181.417 219.736 181.66Z" fill="white"/>
<rect x="345.306" y="325.102" width="15.6967" height="15.6967" rx="7.84836" fill="#5424F5"/>
<path d="M351.085 333.952C351.085 333.62 351.182 333.337 351.376 333.105C351.573 332.87 351.83 332.696 352.147 332.584V332.568C351.891 332.466 351.68 332.304 351.514 332.082C351.351 331.857 351.269 331.581 351.269 331.254C351.269 330.815 351.447 330.456 351.802 330.177C352.157 329.896 352.61 329.756 353.162 329.756C353.714 329.756 354.165 329.896 354.515 330.177C354.865 330.458 355.04 330.816 355.04 331.25C355.04 331.58 354.956 331.856 354.787 332.078C354.618 332.298 354.409 332.461 354.159 332.568V332.584C354.48 332.694 354.739 332.866 354.933 333.101C355.127 333.336 355.224 333.62 355.224 333.952C355.224 334.458 355.031 334.854 354.645 335.14C354.262 335.423 353.768 335.565 353.162 335.565C352.557 335.565 352.059 335.423 351.668 335.14C351.279 334.854 351.085 334.458 351.085 333.952ZM352.173 333.902C352.173 334.168 352.258 334.384 352.426 334.55C352.595 334.716 352.84 334.799 353.162 334.799C353.484 334.799 353.727 334.716 353.89 334.55C354.054 334.384 354.136 334.168 354.136 333.902C354.136 333.626 354.054 333.404 353.89 333.235C353.727 333.064 353.484 332.978 353.162 332.978C352.84 332.978 352.595 333.064 352.426 333.235C352.258 333.404 352.173 333.626 352.173 333.902ZM352.331 331.354C352.331 331.604 352.401 331.81 352.541 331.971C352.684 332.132 352.891 332.212 353.162 332.212C353.433 332.212 353.636 332.132 353.772 331.971C353.909 331.81 353.978 331.604 353.978 331.354C353.978 331.111 353.909 330.912 353.772 330.756C353.636 330.6 353.433 330.522 353.162 330.522C352.891 330.522 352.684 330.6 352.541 330.756C352.401 330.912 352.331 331.111 352.331 331.354Z" fill="white"/>
<rect x="234.184" y="227.755" width="15.6967" height="15.6967" rx="7.84836" fill="#49EB94"/>
<path d="M240.094 238.103V236.578V236.379V233.903H240.048L238.492 236.057H240.301L240.592 235.999H241.88V236.865H237.427V236.164L240.132 232.523H241.159V238.103H240.094ZM243.142 238.103L245.269 233.428H242.364V232.523H246.384V233.167L244.25 238.103H243.142Z" fill="white"/>
<rect x="277.347" y="237.857" width="15.6967" height="15.6967" rx="7.84836" fill="#49EB94"/>
<path d="M283.076 246.676V246.638H284.161V246.676C284.161 246.947 284.249 247.158 284.425 247.308C284.601 247.457 284.852 247.531 285.176 247.531C285.462 247.531 285.7 247.455 285.889 247.305C286.078 247.154 286.173 246.921 286.173 246.607C286.173 246.303 286.065 246.074 285.851 245.921C285.639 245.765 285.366 245.687 285.034 245.687H284.452V244.917H284.996C285.298 244.917 285.539 244.843 285.72 244.695C285.902 244.547 285.992 244.341 285.992 244.078C285.992 243.812 285.914 243.617 285.759 243.491C285.603 243.364 285.409 243.3 285.176 243.3C284.908 243.3 284.697 243.366 284.544 243.499C284.391 243.629 284.314 243.817 284.314 244.062V244.101H283.226V244.062C283.226 243.636 283.404 243.27 283.762 242.966C284.122 242.662 284.594 242.51 285.176 242.51C285.805 242.51 286.28 242.651 286.602 242.932C286.924 243.213 287.085 243.576 287.085 244.02C287.085 244.271 287.012 244.508 286.866 244.733C286.723 244.955 286.494 245.134 286.18 245.27V245.285C286.512 245.369 286.778 245.529 286.977 245.764C287.177 245.999 287.276 246.29 287.276 246.638C287.276 247.161 287.073 247.573 286.667 247.872C286.261 248.171 285.764 248.32 285.176 248.32C284.507 248.32 283.989 248.165 283.624 247.856C283.259 247.547 283.076 247.154 283.076 246.676Z" fill="white"/>
<rect x="231.099" y="295.861" width="15.6967" height="15.6967" rx="7.84836" fill="#49EB94"/>
<path d="M234.468 304.746V304.688H235.549V304.746C235.549 304.991 235.631 305.184 235.794 305.324C235.96 305.465 236.202 305.535 236.518 305.535C236.82 305.535 237.059 305.442 237.235 305.255C237.414 305.069 237.503 304.793 237.503 304.427C237.503 304.052 237.416 303.777 237.243 303.604C237.072 303.43 236.835 303.343 236.534 303.343C236.312 303.343 236.119 303.386 235.955 303.473C235.792 303.558 235.65 303.666 235.53 303.799L234.691 303.462L234.974 300.63H238.308V301.504H235.844L235.71 302.841C235.845 302.759 235.999 302.693 236.17 302.642C236.341 302.588 236.538 302.561 236.76 302.561C237.266 302.561 237.698 302.726 238.055 303.056C238.415 303.383 238.596 303.84 238.596 304.427C238.596 305.015 238.396 305.479 237.998 305.819C237.602 306.156 237.109 306.324 236.518 306.324C235.887 306.324 235.388 306.175 235.02 305.876C234.652 305.575 234.468 305.198 234.468 304.746ZM239.241 303.876V303.761C239.241 302.79 239.537 302.012 240.13 301.427C240.723 300.839 241.6 300.545 242.763 300.545H242.839V301.381H242.763C241.979 301.381 241.374 301.561 240.95 301.921C240.526 302.281 240.314 302.875 240.314 303.703V303.895C240.314 304.495 240.415 304.921 240.617 305.171C240.819 305.419 241.079 305.543 241.399 305.543C241.713 305.543 241.958 305.444 242.134 305.248C242.313 305.051 242.403 304.774 242.403 304.416C242.403 304.058 242.317 303.782 242.146 303.588C241.975 303.392 241.732 303.293 241.418 303.293C241.124 303.293 240.862 303.388 240.632 303.577C240.405 303.766 240.291 304.039 240.291 304.397H239.893C239.893 303.83 240.047 303.374 240.356 303.029C240.668 302.684 241.086 302.511 241.609 302.511C242.179 302.511 242.636 302.684 242.981 303.029C243.326 303.371 243.499 303.826 243.499 304.393C243.499 304.96 243.299 305.424 242.901 305.784C242.502 306.144 242.001 306.324 241.399 306.324C240.798 306.324 240.288 306.134 239.87 305.753C239.451 305.37 239.241 304.744 239.241 303.876Z" fill="white"/>
<rect x="218.572" y="274.592" width="15.6967" height="15.6967" rx="7.84836" fill="#49EB94"/>
<path d="M221.941 283.476V283.419H223.022V283.476C223.022 283.721 223.104 283.914 223.267 284.055C223.433 284.195 223.675 284.265 223.991 284.265C224.293 284.265 224.532 284.172 224.708 283.986C224.887 283.799 224.976 283.523 224.976 283.158C224.976 282.782 224.889 282.508 224.716 282.334C224.544 282.16 224.308 282.073 224.007 282.073C223.784 282.073 223.592 282.117 223.428 282.204C223.265 282.288 223.123 282.397 223.003 282.529L222.163 282.192L222.447 279.36H225.781V280.234H223.317L223.183 281.571C223.318 281.49 223.471 281.423 223.643 281.372C223.814 281.319 224.011 281.292 224.233 281.292C224.739 281.292 225.17 281.456 225.528 281.786C225.888 282.113 226.068 282.57 226.068 283.158C226.068 283.746 225.869 284.209 225.471 284.549C225.075 284.886 224.582 285.055 223.991 285.055C223.36 285.055 222.861 284.905 222.493 284.607C222.125 284.305 221.941 283.928 221.941 283.476ZM226.714 282.606V282.491C226.714 281.52 227.01 280.742 227.603 280.157C228.196 279.57 229.073 279.276 230.236 279.276H230.312V280.111H230.236C229.451 280.111 228.847 280.291 228.423 280.652C227.999 281.012 227.787 281.606 227.787 282.434V282.625C227.787 283.226 227.888 283.651 228.09 283.901C228.292 284.149 228.552 284.273 228.871 284.273C229.186 284.273 229.431 284.175 229.607 283.978C229.786 283.781 229.876 283.504 229.876 283.146C229.876 282.789 229.79 282.513 229.619 282.319C229.448 282.122 229.205 282.024 228.891 282.024C228.597 282.024 228.335 282.118 228.105 282.307C227.878 282.496 227.764 282.77 227.764 283.127H227.365C227.365 282.56 227.52 282.104 227.829 281.759C228.141 281.414 228.558 281.242 229.082 281.242C229.652 281.242 230.109 281.414 230.454 281.759C230.799 282.102 230.972 282.556 230.972 283.123C230.972 283.691 230.772 284.154 230.374 284.515C229.975 284.875 229.474 285.055 228.871 285.055C228.271 285.055 227.761 284.865 227.342 284.484C226.923 284.101 226.714 283.475 226.714 282.606Z" fill="white"/>
<rect x="301.225" y="240.612" width="15.6967" height="15.6967" rx="7.84836" fill="#49EB94"/>
<path d="M305.372 250.96L307.499 246.285H304.594V245.381H308.614V246.025L306.48 250.96H305.372ZM309.432 250.96V250.271L311.636 248.117C311.876 247.882 312.055 247.665 312.172 247.465C312.29 247.266 312.348 247.058 312.348 246.841C312.348 246.611 312.272 246.424 312.119 246.281C311.965 246.136 311.754 246.063 311.486 246.063C311.213 246.063 310.988 246.15 310.812 246.323C310.638 246.497 310.542 246.748 310.524 247.075V247.113H309.432V247.075C309.432 246.536 309.628 246.1 310.018 245.768C310.409 245.433 310.901 245.266 311.494 245.266C312.092 245.266 312.564 245.414 312.912 245.71C313.262 246.007 313.437 246.369 313.437 246.799C313.437 247.146 313.344 247.463 313.157 247.749C312.973 248.035 312.723 248.33 312.406 248.634L310.865 250.129H313.582V250.96H309.432Z" fill="white"/>
<rect x="218.572" y="246.123" width="15.6967" height="15.6967" rx="7.84836" fill="#49EB94"/>
<path d="M224.351 254.972C224.351 254.64 224.448 254.358 224.642 254.125C224.838 253.89 225.095 253.717 225.412 253.604V253.589C225.157 253.487 224.946 253.324 224.78 253.102C224.616 252.877 224.534 252.601 224.534 252.274C224.534 251.835 224.712 251.476 225.067 251.198C225.422 250.917 225.876 250.776 226.428 250.776C226.979 250.776 227.43 250.917 227.78 251.198C228.13 251.479 228.305 251.836 228.305 252.271C228.305 252.6 228.221 252.876 228.052 253.098C227.884 253.318 227.674 253.482 227.424 253.589V253.604C227.746 253.714 228.004 253.887 228.198 254.122C228.392 254.357 228.489 254.64 228.489 254.972C228.489 255.478 228.296 255.874 227.911 256.16C227.527 256.444 227.033 256.586 226.428 256.586C225.822 256.586 225.324 256.444 224.933 256.16C224.545 255.874 224.351 255.478 224.351 254.972ZM225.439 254.922C225.439 255.188 225.523 255.404 225.692 255.57C225.86 255.736 226.106 255.819 226.428 255.819C226.749 255.819 226.992 255.736 227.156 255.57C227.319 255.404 227.401 255.188 227.401 254.922C227.401 254.647 227.319 254.424 227.156 254.256C226.992 254.085 226.749 253.999 226.428 253.999C226.106 253.999 225.86 254.085 225.692 254.256C225.523 254.424 225.439 254.647 225.439 254.922ZM225.596 252.374C225.596 252.624 225.666 252.83 225.807 252.991C225.95 253.152 226.157 253.232 226.428 253.232C226.698 253.232 226.902 253.152 227.037 252.991C227.175 252.83 227.244 252.624 227.244 252.374C227.244 252.131 227.175 251.932 227.037 251.776C226.902 251.62 226.698 251.542 226.428 251.542C226.157 251.542 225.95 251.62 225.807 251.776C225.666 251.932 225.596 252.131 225.596 252.374Z" fill="white"/>
<rect x="272.755" y="304.898" width="15.6967" height="15.6967" rx="7.84836" fill="#49EB94"/>
<path d="M278.665 315.246V313.721V313.522V311.046H278.62L277.064 313.2H278.872L279.164 313.142H280.451V314.008H275.998V313.307L278.704 309.666H279.731V315.246H278.665ZM280.94 313.748C280.94 313.416 281.037 313.133 281.231 312.901C281.428 312.666 281.684 312.492 282.001 312.38V312.364C281.746 312.262 281.535 312.1 281.369 311.878C281.205 311.653 281.124 311.377 281.124 311.05C281.124 310.61 281.301 310.251 281.656 309.973C282.011 309.692 282.465 309.551 283.017 309.551C283.569 309.551 284.019 309.692 284.37 309.973C284.72 310.254 284.895 310.612 284.895 311.046C284.895 311.376 284.81 311.651 284.642 311.874C284.473 312.093 284.263 312.257 284.013 312.364V312.38C284.335 312.489 284.593 312.662 284.787 312.897C284.981 313.132 285.078 313.416 285.078 313.748C285.078 314.254 284.886 314.65 284.5 314.936C284.117 315.219 283.622 315.361 283.017 315.361C282.411 315.361 281.913 315.219 281.522 314.936C281.134 314.65 280.94 314.254 280.94 313.748ZM282.028 313.698C282.028 313.964 282.112 314.179 282.281 314.346C282.45 314.512 282.695 314.595 283.017 314.595C283.339 314.595 283.581 314.512 283.745 314.346C283.908 314.179 283.99 313.964 283.99 313.698C283.99 313.422 283.908 313.2 283.745 313.031C283.581 312.86 283.339 312.774 283.017 312.774C282.695 312.774 282.45 312.86 282.281 313.031C282.112 313.2 282.028 313.422 282.028 313.698ZM282.185 311.149C282.185 311.4 282.255 311.605 282.396 311.766C282.539 311.927 282.746 312.008 283.017 312.008C283.288 312.008 283.491 311.927 283.626 311.766C283.764 311.605 283.833 311.4 283.833 311.149C283.833 310.907 283.764 310.707 283.626 310.552C283.491 310.396 283.288 310.318 283.017 310.318C282.746 310.318 282.539 310.396 282.396 310.552C282.255 310.707 282.185 310.907 282.185 311.149Z" fill="white"/>
<rect x="249.796" y="303.979" width="15.6967" height="15.6967" rx="7.84836" fill="#49EB94"/>
<path d="M253.166 312.864V312.806H254.246V312.864C254.246 313.109 254.328 313.302 254.491 313.442C254.658 313.583 254.899 313.653 255.216 313.653C255.517 313.653 255.756 313.56 255.932 313.373C256.111 313.187 256.201 312.911 256.201 312.546C256.201 312.17 256.114 311.895 255.94 311.722C255.769 311.548 255.533 311.461 255.231 311.461C255.009 311.461 254.816 311.505 254.652 311.591C254.489 311.676 254.347 311.784 254.227 311.917L253.388 311.58L253.671 308.748H257.005V309.622H254.541L254.407 310.959C254.543 310.877 254.696 310.811 254.867 310.76C255.038 310.706 255.235 310.679 255.457 310.679C255.963 310.679 256.395 310.844 256.752 311.174C257.113 311.501 257.293 311.958 257.293 312.546C257.293 313.133 257.094 313.597 256.695 313.937C256.299 314.274 255.806 314.443 255.216 314.443C254.585 314.443 254.085 314.293 253.717 313.994C253.349 313.693 253.166 313.316 253.166 312.864ZM257.938 311.994V311.879C257.938 310.908 258.235 310.13 258.827 309.545C259.42 308.957 260.298 308.664 261.46 308.664H261.537V309.499H261.46C260.676 309.499 260.072 309.679 259.647 310.039C259.223 310.4 259.011 310.994 259.011 311.821V312.013C259.011 312.613 259.112 313.039 259.314 313.289C259.516 313.537 259.776 313.661 260.096 313.661C260.41 313.661 260.655 313.562 260.832 313.366C261.01 313.169 261.1 312.892 261.1 312.534C261.1 312.176 261.014 311.901 260.843 311.706C260.672 311.51 260.429 311.411 260.115 311.411C259.821 311.411 259.559 311.506 259.329 311.695C259.102 311.884 258.988 312.157 258.988 312.515H258.59C258.59 311.948 258.744 311.492 259.053 311.147C259.365 310.802 259.783 310.63 260.307 310.63C260.876 310.63 261.334 310.802 261.679 311.147C262.023 311.489 262.196 311.944 262.196 312.511C262.196 313.078 261.997 313.542 261.598 313.902C261.2 314.262 260.699 314.443 260.096 314.443C259.495 314.443 258.986 314.252 258.567 313.872C258.148 313.488 257.938 312.862 257.938 311.994Z" fill="white"/>
<rect x="146.021" y="86.3267" width="15.6967" height="15.6967" rx="7.84836" fill="#C5C5C5"/>
<path d="M149.39 95.2109V95.1534H150.471V95.2109C150.471 95.4562 150.553 95.6491 150.716 95.7896C150.882 95.9301 151.124 96.0003 151.44 96.0003C151.742 96.0003 151.981 95.9071 152.157 95.7206C152.336 95.5341 152.425 95.2582 152.425 94.8928C152.425 94.5173 152.338 94.2426 152.165 94.0689C151.993 93.8952 151.757 93.8083 151.456 93.8083C151.233 93.8083 151.041 93.8517 150.877 93.9386C150.714 94.0229 150.572 94.1315 150.452 94.2643L149.612 93.9271L149.896 91.0951H153.23V91.9689H150.766L150.632 93.3063C150.767 93.2245 150.92 93.1581 151.092 93.107C151.263 93.0534 151.46 93.0265 151.682 93.0265C152.188 93.0265 152.619 93.1913 152.977 93.5209C153.337 93.8479 153.517 94.3052 153.517 94.8928C153.517 95.4804 153.318 95.9441 152.92 96.2839C152.524 96.6212 152.031 96.7898 151.44 96.7898C150.809 96.7898 150.31 96.6403 149.942 96.3414C149.574 96.0399 149.39 95.6631 149.39 95.2109ZM154.163 94.341V94.226C154.163 93.2552 154.459 92.4773 155.052 91.8922C155.645 91.3046 156.522 91.0108 157.685 91.0108H157.761V91.8462H157.685C156.9 91.8462 156.296 92.0263 155.872 92.3866C155.448 92.7468 155.236 93.3408 155.236 94.1685V94.3602C155.236 94.9605 155.337 95.3859 155.539 95.6363C155.74 95.8841 156.001 96.008 156.32 96.008C156.635 96.008 156.88 95.9096 157.056 95.7129C157.235 95.5162 157.324 95.239 157.324 94.8813C157.324 94.5237 157.239 94.2477 157.068 94.0536C156.897 93.8569 156.654 93.7585 156.34 93.7585C156.046 93.7585 155.784 93.853 155.554 94.0421C155.327 94.2311 155.213 94.5045 155.213 94.8622H154.814C154.814 94.295 154.969 93.839 155.278 93.4941C155.59 93.1492 156.007 92.9767 156.531 92.9767C157.101 92.9767 157.558 93.1492 157.903 93.4941C158.248 93.8364 158.42 94.2912 158.42 94.8583C158.42 95.4255 158.221 95.8892 157.823 96.2494C157.424 96.6097 156.923 96.7898 156.32 96.7898C155.72 96.7898 155.21 96.5994 154.791 96.2188C154.372 95.8356 154.163 95.2096 154.163 94.341Z" fill="white"/>
<rect x="198.367" y="58.7754" width="15.6967" height="15.6967" rx="7.84836" fill="#C5C5C5"/>
<path d="M201.691 67.5945V67.5562H202.776V67.5945C202.776 67.8653 202.864 68.0761 203.04 68.2268C203.216 68.375 203.467 68.4491 203.791 68.4491C204.077 68.4491 204.315 68.3737 204.504 68.223C204.693 68.0722 204.787 67.8397 204.787 67.5255C204.787 67.2215 204.68 66.9928 204.466 66.8395C204.254 66.6837 203.981 66.6058 203.649 66.6058H203.067V65.8355H203.611C203.912 65.8355 204.154 65.7614 204.335 65.6132C204.517 65.4651 204.607 65.2594 204.607 64.9962C204.607 64.7305 204.529 64.5351 204.374 64.4099C204.218 64.2822 204.024 64.2183 203.791 64.2183C203.523 64.2183 203.312 64.2847 203.159 64.4176C203.006 64.5479 202.929 64.7357 202.929 64.9809V65.0192H201.841V64.9809C201.841 64.5543 202.019 64.1889 202.377 63.8849C202.737 63.5809 203.209 63.4289 203.791 63.4289C204.42 63.4289 204.895 63.5694 205.217 63.8504C205.539 64.1314 205.7 64.4942 205.7 64.9388C205.7 65.1891 205.627 65.4267 205.481 65.6516C205.338 65.8738 205.109 66.0527 204.795 66.1881V66.2034C205.127 66.2877 205.393 66.4474 205.592 66.6824C205.792 66.9175 205.891 67.2087 205.891 67.5562C205.891 68.0799 205.688 68.4912 205.282 68.7901C204.876 69.089 204.379 69.2385 203.791 69.2385C203.122 69.2385 202.604 69.0839 202.239 68.7748C201.874 68.4657 201.691 68.0722 201.691 67.5945ZM206.548 67.6596V67.6021H207.629V67.6596C207.629 67.9049 207.711 68.0978 207.874 68.2383C208.04 68.3788 208.282 68.4491 208.598 68.4491C208.9 68.4491 209.139 68.3558 209.315 68.1693C209.494 67.9828 209.583 67.7069 209.583 67.3416C209.583 66.966 209.496 66.6914 209.323 66.5176C209.151 66.3439 208.915 66.257 208.614 66.257C208.391 66.257 208.199 66.3005 208.035 66.3873C207.872 66.4716 207.73 66.5802 207.61 66.7131L206.77 66.3758L207.054 63.5438H210.388V64.4176H207.924L207.79 65.755C207.925 65.6733 208.078 65.6068 208.25 65.5557C208.421 65.5021 208.618 65.4753 208.84 65.4753C209.346 65.4753 209.777 65.6401 210.135 65.9696C210.495 66.2966 210.675 66.754 210.675 67.3416C210.675 67.9292 210.476 68.3929 210.078 68.7326C209.682 69.0699 209.189 69.2385 208.598 69.2385C207.967 69.2385 207.468 69.089 207.1 68.7901C206.732 68.4887 206.548 68.1118 206.548 67.6596Z" fill="white"/>
<rect x="316.837" y="56.0205" width="15.6967" height="15.6967" rx="7.84836" fill="#C5C5C5"/>
<path d="M320.233 66.3687V65.6789L322.437 63.5252C322.677 63.2901 322.856 63.073 322.973 62.8737C323.091 62.6744 323.149 62.4662 323.149 62.249C323.149 62.0191 323.073 61.8326 322.919 61.6895C322.766 61.5439 322.555 61.4711 322.287 61.4711C322.014 61.4711 321.789 61.558 321.613 61.7317C321.439 61.9054 321.343 62.1558 321.325 62.4828V62.5211H320.233V62.4828C320.233 61.9437 320.429 61.5081 320.819 61.176C321.21 60.8413 321.702 60.674 322.295 60.674C322.893 60.674 323.365 60.8222 323.713 61.1185C324.063 61.4149 324.238 61.7777 324.238 62.2069C324.238 62.5543 324.145 62.8711 323.958 63.1573C323.774 63.4434 323.524 63.7385 323.207 64.0425L321.666 65.5371H324.383V66.3687H320.233ZM327.558 66.3687V64.8434V64.6442V62.1686H327.512L325.956 64.3223H327.765L328.056 64.2648H329.344V65.1308H324.891V64.4296L327.596 60.789H328.623V66.3687H327.558Z" fill="white"/>
<rect x="470.204" y="191.939" width="15.6967" height="15.6967" rx="7.84836" fill="#C5C5C5"/>
<path d="M473.497 198.501C473.497 197.941 473.696 197.483 474.095 197.125C474.493 196.767 474.995 196.589 475.601 196.589C476.199 196.589 476.708 196.78 477.13 197.163C477.552 197.544 477.762 198.169 477.762 199.037V199.152C477.762 200.123 477.465 200.902 476.869 201.49C476.277 202.078 475.398 202.371 474.233 202.371H474.16V201.532H474.233C475.02 201.532 475.625 201.352 476.049 200.992C476.476 200.632 476.689 200.038 476.689 199.21V199.018C476.689 198.418 476.587 197.994 476.383 197.746C476.178 197.496 475.918 197.37 475.601 197.37C475.284 197.37 475.036 197.467 474.858 197.662C474.679 197.856 474.589 198.129 474.589 198.482C474.589 198.832 474.675 199.104 474.846 199.298C475.02 199.49 475.265 199.585 475.582 199.585C475.876 199.585 476.136 199.492 476.364 199.306C476.593 199.119 476.708 198.851 476.708 198.501H477.107C477.107 199.063 476.951 199.515 476.639 199.857C476.328 200.197 475.911 200.367 475.39 200.367C474.823 200.367 474.366 200.197 474.018 199.857C473.671 199.518 473.497 199.066 473.497 198.501ZM478.458 200.371V198.62C478.458 198.014 478.629 197.525 478.971 197.152C479.316 196.779 479.81 196.592 480.454 196.592C481.093 196.592 481.586 196.779 481.933 197.152C482.283 197.525 482.458 198.014 482.458 198.62V200.371C482.458 200.976 482.283 201.467 481.933 201.843C481.586 202.216 481.093 202.402 480.454 202.402C479.81 202.402 479.316 202.216 478.971 201.843C478.629 201.467 478.458 200.976 478.458 200.371ZM479.557 200.409C479.557 200.754 479.625 201.039 479.761 201.264C479.896 201.489 480.127 201.601 480.454 201.601C480.781 201.601 481.014 201.489 481.152 201.264C481.29 201.039 481.359 200.754 481.359 200.409V198.581C481.359 198.239 481.29 197.955 481.152 197.731C481.014 197.503 480.781 197.39 480.454 197.39C480.127 197.39 479.896 197.503 479.761 197.731C479.625 197.955 479.557 198.239 479.557 198.581V200.409Z" fill="white"/>
<rect x="338.359" y="447.597" width="15.6967" height="15.6967" rx="7.84836" fill="#C5C5C5"/>
<path d="M344.912 457.945L347.039 453.27H344.134V452.365H348.154V453.009L346.02 457.945H344.912Z" fill="white"/>
<rect x="120.349" y="423.179" width="15.6967" height="15.6967" rx="7.84836" fill="#C5C5C5"/>
<path d="M125.508 433.527V428.994L124.09 429.557V428.626L126.114 427.879H126.589V433.527H125.508ZM128.53 432.063V432.006H129.611V432.063C129.611 432.309 129.692 432.502 129.856 432.642C130.022 432.783 130.263 432.853 130.58 432.853C130.882 432.853 131.12 432.76 131.297 432.573C131.476 432.387 131.565 432.111 131.565 431.745C131.565 431.37 131.478 431.095 131.304 430.921C131.133 430.748 130.897 430.661 130.595 430.661C130.373 430.661 130.18 430.704 130.017 430.791C129.853 430.875 129.711 430.984 129.591 431.117L128.752 430.78L129.036 427.948H132.37V428.821H129.906L129.771 430.159C129.907 430.077 130.06 430.011 130.231 429.96C130.403 429.906 130.599 429.879 130.821 429.879C131.327 429.879 131.759 430.044 132.117 430.373C132.477 430.7 132.657 431.158 132.657 431.745C132.657 432.333 132.458 432.797 132.059 433.136C131.663 433.474 131.17 433.642 130.58 433.642C129.949 433.642 129.45 433.493 129.082 433.194C128.714 432.892 128.53 432.516 128.53 432.063Z" fill="white"/>
<rect x="117.551" y="111.123" width="15.6967" height="15.6967" rx="7.84836" fill="#C5C5C5"/>
<path d="M122.71 121.471V116.937L121.292 117.501V116.569L123.316 115.822H123.791V121.471H122.71ZM125.759 121.471V120.781L127.962 118.627C128.202 118.392 128.381 118.175 128.499 117.976C128.616 117.776 128.675 117.568 128.675 117.351C128.675 117.121 128.598 116.935 128.445 116.792C128.292 116.646 128.081 116.573 127.813 116.573C127.539 116.573 127.314 116.66 127.138 116.834C126.964 117.007 126.869 117.258 126.851 117.585V117.623H125.759V117.585C125.759 117.046 125.954 116.61 126.345 116.278C126.736 115.943 127.228 115.776 127.82 115.776C128.418 115.776 128.891 115.924 129.238 116.221C129.588 116.517 129.763 116.88 129.763 117.309C129.763 117.656 129.67 117.973 129.483 118.259C129.3 118.545 129.049 118.841 128.732 119.145L127.192 120.639H129.909V121.471H125.759Z" fill="white"/>
<rect x="85.4082" y="145.102" width="15.6967" height="15.6967" rx="7.84836" fill="#C5C5C5"/>
<path d="M88.8046 155.45V154.76L91.0082 152.607C91.2483 152.372 91.4271 152.154 91.5447 151.955C91.6622 151.756 91.7209 151.548 91.7209 151.331C91.7209 151.101 91.6443 150.914 91.491 150.771C91.3377 150.625 91.127 150.553 90.8587 150.553C90.5853 150.553 90.3605 150.639 90.1842 150.813C90.0105 150.987 89.9147 151.237 89.8968 151.564V151.603H88.8046V151.564C88.8046 151.025 89.0001 150.59 89.391 150.258C89.7819 149.923 90.2737 149.756 90.8664 149.756C91.4642 149.756 91.9368 149.904 92.2843 150.2C92.6343 150.496 92.8093 150.859 92.8093 151.288C92.8093 151.636 92.716 151.953 92.5295 152.239C92.3456 152.525 92.0952 152.82 91.7784 153.124L90.2379 154.619H92.9549V155.45H88.8046ZM96.1297 155.45V153.925V153.726V151.25H96.0837L94.5278 153.404H96.3366L96.6279 153.346H97.9155V154.212H93.4625V153.511L96.168 149.871H97.195V155.45H96.1297Z" fill="white"/>
<rect x="63.3674" y="176.327" width="15.6967" height="15.6967" rx="7.84836" fill="#C5C5C5"/>
<path d="M67.515 186.675L69.6419 182H66.737V181.095H70.757V181.739L68.6225 186.675H67.515ZM71.621 184.759V183.007C71.621 182.402 71.7921 181.913 72.1345 181.54C72.4794 181.167 72.9737 180.98 73.6175 180.98C74.2562 180.98 74.7493 181.167 75.0968 181.54C75.4468 181.913 75.6218 182.402 75.6218 183.007V184.759C75.6218 185.364 75.4468 185.855 75.0968 186.23C74.7493 186.603 74.2562 186.79 73.6175 186.79C72.9737 186.79 72.4794 186.603 72.1345 186.23C71.7921 185.855 71.621 185.364 71.621 184.759ZM72.7208 184.797C72.7208 185.142 72.7885 185.427 72.9239 185.652C73.0593 185.876 73.2905 185.989 73.6175 185.989C73.9446 185.989 74.177 185.876 74.315 185.652C74.453 185.427 74.5219 185.142 74.5219 184.797V182.969C74.5219 182.627 74.453 182.343 74.315 182.118C74.177 181.891 73.9446 181.777 73.6175 181.777C73.2905 181.777 73.0593 181.891 72.9239 182.118C72.7885 182.343 72.7208 182.627 72.7208 182.969V184.797Z" fill="white"/>
<line x1="269.541" y1="476.633" x2="269.541" y2="518.878" stroke="#F1F1F1" stroke-width="0.918367"/>
<line x1="517.959" y1="269.541" x2="477.551" y2="269.541" stroke="#F1F1F1" stroke-width="0.918367"/>
<line x1="270.459" y1="62.4492" x2="270.459" y2="18.3676" stroke="#F1F1F1" stroke-width="0.918367"/>
<line x1="67.0408" y1="269.541" x2="21.1224" y2="269.541" stroke="#F1F1F1" stroke-width="0.918367"/>
<line x1="135.918" y1="269.541" x2="88.1634" y2="269.541" stroke="#F1F1F1" stroke-width="0.918367"/>
<line x1="198.367" y1="269.541" x2="156.123" y2="269.541" stroke="#F1F1F1" stroke-width="0.918367"/>
<line x1="383.878" y1="269.541" x2="341.633" y2="269.541" stroke="#F1F1F1" stroke-width="0.918367"/>
<line x1="451.837" y1="269.541" x2="413.265" y2="269.541" stroke="#F1F1F1" stroke-width="0.918367"/>
<line x1="270.459" y1="384.796" x2="270.459" y2="340.714" stroke="#F1F1F1" stroke-width="0.918367"/>
<line x1="270.459" y1="131.327" x2="270.459" y2="85.4083" stroke="#F1F1F1" stroke-width="0.918367"/>
<line x1="270.459" y1="198.367" x2="270.459" y2="153.367" stroke="#F1F1F1" stroke-width="0.918367"/>
<line x1="270.459" y1="453.673" x2="270.459" y2="407.755" stroke="#F1F1F1" stroke-width="0.918367"/>
<rect x="50.5103" y="213.979" width="15.6967" height="15.6967" rx="7.84836" fill="#C5C5C5"/>
<path d="M54.6578 224.328L56.7847 219.652H53.8799V218.748H57.8999V219.392L55.7653 224.328H54.6578ZM58.6948 222.829C58.6948 222.497 58.7919 222.215 58.9861 221.982C59.1828 221.747 59.4395 221.574 59.7563 221.461V221.446C59.5008 221.344 59.2901 221.181 59.124 220.959C58.9605 220.734 58.8787 220.458 58.8787 220.131C58.8787 219.692 59.0563 219.333 59.4114 219.055C59.7665 218.773 60.22 218.633 60.7719 218.633C61.3237 218.633 61.7746 218.773 62.1246 219.055C62.4746 219.336 62.6496 219.693 62.6496 220.128C62.6496 220.457 62.5653 220.733 62.3967 220.955C62.2281 221.175 62.0186 221.339 61.7682 221.446V221.461C62.0901 221.571 62.3482 221.743 62.5423 221.978C62.7365 222.214 62.8336 222.497 62.8336 222.829C62.8336 223.335 62.6407 223.731 62.2549 224.017C61.8717 224.301 61.3773 224.443 60.7719 224.443C60.1664 224.443 59.6682 224.301 59.2773 224.017C58.889 223.731 58.6948 223.335 58.6948 222.829ZM59.7832 222.779C59.7832 223.045 59.8675 223.261 60.0361 223.427C60.2047 223.593 60.45 223.676 60.7719 223.676C61.0938 223.676 61.3365 223.593 61.5 223.427C61.6635 223.261 61.7452 223.045 61.7452 222.779C61.7452 222.504 61.6635 222.281 61.5 222.113C61.3365 221.941 61.0938 221.856 60.7719 221.856C60.45 221.856 60.2047 221.941 60.0361 222.113C59.8675 222.281 59.7832 222.504 59.7832 222.779ZM59.9403 220.231C59.9403 220.481 60.0105 220.687 60.151 220.848C60.2941 221.009 60.5011 221.089 60.7719 221.089C61.0427 221.089 61.2458 221.009 61.3812 220.848C61.5191 220.687 61.5881 220.481 61.5881 220.231C61.5881 219.988 61.5191 219.789 61.3812 219.633C61.2458 219.477 61.0427 219.399 60.7719 219.399C60.5011 219.399 60.2941 219.477 60.151 219.633C60.0105 219.789 59.9403 219.988 59.9403 220.231Z" fill="white"/>
<rect x="407.251" y="412.715" width="15.6967" height="15.6967" rx="7.84836" fill="#C5C5C5"/>
<path d="M411.399 423.063L413.526 418.388H410.621V417.483H414.641V418.127L412.506 423.063H411.399ZM417.221 423.063V418.529L415.804 419.093V418.162L417.827 417.414H418.302V423.063H417.221Z" fill="white"/>
<rect x="470.204" y="340.714" width="15.6967" height="15.6967" rx="7.84836" fill="#C5C5C5"/>
<path d="M474.352 351.062L476.479 346.387H473.574V345.483H477.594V346.127L475.459 351.062H474.352ZM478.412 351.062V350.373L480.615 348.219C480.855 347.984 481.034 347.767 481.152 347.568C481.269 347.368 481.328 347.16 481.328 346.943C481.328 346.713 481.251 346.526 481.098 346.383C480.945 346.238 480.734 346.165 480.466 346.165C480.192 346.165 479.968 346.252 479.791 346.426C479.618 346.599 479.522 346.85 479.504 347.177V347.215H478.412V347.177C478.412 346.638 478.607 346.202 478.998 345.87C479.389 345.535 479.881 345.368 480.473 345.368C481.071 345.368 481.544 345.516 481.891 345.812C482.241 346.109 482.416 346.472 482.416 346.901C482.416 347.248 482.323 347.565 482.137 347.851C481.953 348.137 481.702 348.432 481.385 348.736L479.845 350.231H482.562V351.062H478.412Z" fill="white"/>
<rect x="123.061" y="175.408" width="15.6967" height="15.6967" rx="7.84836" fill="#00B3FF"/>
<path d="M126.431 184.292V184.235H127.512V184.292C127.512 184.538 127.593 184.731 127.757 184.871C127.923 185.012 128.164 185.082 128.481 185.082C128.783 185.082 129.021 184.989 129.198 184.802C129.377 184.616 129.466 184.34 129.466 183.974C129.466 183.599 129.379 183.324 129.205 183.15C129.034 182.977 128.798 182.89 128.496 182.89C128.274 182.89 128.081 182.933 127.918 183.02C127.754 183.104 127.612 183.213 127.492 183.346L126.653 183.009L126.937 180.177H130.271V181.05H127.807L127.673 182.388C127.808 182.306 127.961 182.24 128.132 182.189C128.304 182.135 128.5 182.108 128.723 182.108C129.228 182.108 129.66 182.273 130.018 182.602C130.378 182.929 130.558 183.387 130.558 183.974C130.558 184.562 130.359 185.026 129.96 185.365C129.564 185.703 129.071 185.871 128.481 185.871C127.85 185.871 127.351 185.722 126.983 185.423C126.615 185.121 126.431 184.745 126.431 184.292ZM131.204 183.423V183.308C131.204 182.337 131.5 181.559 132.093 180.974C132.685 180.386 133.563 180.092 134.725 180.092H134.802V180.928H134.725C133.941 180.928 133.337 181.108 132.913 181.468C132.489 181.828 132.277 182.422 132.277 183.25V183.442C132.277 184.042 132.378 184.467 132.579 184.718C132.781 184.966 133.042 185.09 133.361 185.09C133.675 185.09 133.921 184.991 134.097 184.794C134.276 184.598 134.365 184.321 134.365 183.963C134.365 183.605 134.28 183.329 134.108 183.135C133.937 182.938 133.695 182.84 133.38 182.84C133.087 182.84 132.825 182.935 132.595 183.124C132.367 183.313 132.254 183.586 132.254 183.944H131.855C131.855 183.377 132.01 182.921 132.319 182.576C132.631 182.231 133.048 182.058 133.572 182.058C134.142 182.058 134.599 182.231 134.944 182.576C135.289 182.918 135.461 183.373 135.461 183.94C135.461 184.507 135.262 184.971 134.863 185.331C134.465 185.691 133.964 185.871 133.361 185.871C132.761 185.871 132.251 185.681 131.832 185.3C131.413 184.917 131.204 184.291 131.204 183.423Z" fill="white"/>
<rect x="393.98" y="166.225" width="15.6967" height="15.6967" rx="7.84836" fill="#00B3FF"/>
<path d="M399.89 176.573V175.048V174.848V172.373H399.844L398.288 174.526H400.097L400.388 174.469H401.676V175.335H397.223V174.634L399.928 170.993H400.955V176.573H399.89ZM402.233 174.657V172.905C402.233 172.3 402.404 171.811 402.747 171.438C403.092 171.065 403.586 170.878 404.23 170.878C404.868 170.878 405.362 171.065 405.709 171.438C406.059 171.811 406.234 172.3 406.234 172.905V174.657C406.234 175.262 406.059 175.753 405.709 176.128C405.362 176.501 404.868 176.688 404.23 176.688C403.586 176.688 403.092 176.501 402.747 176.128C402.404 175.753 402.233 175.262 402.233 174.657ZM403.333 174.695C403.333 175.04 403.401 175.325 403.536 175.55C403.671 175.774 403.903 175.887 404.23 175.887C404.557 175.887 404.789 175.774 404.927 175.55C405.065 175.325 405.134 175.04 405.134 174.695V172.867C405.134 172.525 405.065 172.241 404.927 172.016C404.789 171.789 404.557 171.675 404.23 171.675C403.903 171.675 403.671 171.789 403.536 172.016C403.401 172.241 403.333 172.525 403.333 172.867V174.695Z" fill="white"/>
<rect x="360.918" y="384.796" width="15.6967" height="15.6967" rx="7.84836" fill="#00B3FF"/>
<path d="M368.483 395.144V390.611L367.065 391.174V390.243L369.089 389.495H369.564V395.144H368.483Z" fill="white"/>
<rect x="171.801" y="397.018" width="15.6967" height="15.6967" rx="7.84836" fill="#00B3FF"/>
<path d="M177.53 405.837V405.799H178.615V405.837C178.615 406.108 178.703 406.319 178.879 406.469C179.055 406.618 179.306 406.692 179.63 406.692C179.916 406.692 180.154 406.616 180.343 406.466C180.532 406.315 180.627 406.082 180.627 405.768C180.627 405.464 180.519 405.236 180.305 405.082C180.093 404.926 179.821 404.848 179.488 404.848H178.906V404.078H179.45C179.752 404.078 179.993 404.004 180.174 403.856C180.356 403.708 180.447 403.502 180.447 403.239C180.447 402.973 180.369 402.778 180.213 402.653C180.057 402.525 179.863 402.461 179.63 402.461C179.362 402.461 179.151 402.527 178.998 402.66C178.845 402.791 178.768 402.978 178.768 403.224V403.262H177.68V403.224C177.68 402.797 177.858 402.432 178.216 402.128C178.576 401.824 179.048 401.672 179.63 401.672C180.259 401.672 180.734 401.812 181.056 402.093C181.378 402.374 181.539 402.737 181.539 403.181C181.539 403.432 181.466 403.669 181.32 403.894C181.177 404.116 180.949 404.295 180.634 404.431V404.446C180.966 404.53 181.232 404.69 181.431 404.925C181.631 405.16 181.73 405.451 181.73 405.799C181.73 406.323 181.527 406.734 181.121 407.033C180.715 407.332 180.218 407.481 179.63 407.481C178.961 407.481 178.444 407.327 178.078 407.017C177.713 406.708 177.53 406.315 177.53 405.837Z" fill="white"/>
<rect x="102.857" y="283.775" width="15.6967" height="15.6967" rx="7.84836" fill="#00B3FF"/>
<path d="M106.188 291.79V291.675C106.188 290.704 106.485 289.926 107.078 289.341C107.67 288.753 108.548 288.46 109.71 288.46H109.787V289.295H109.71C108.926 289.295 108.322 289.475 107.898 289.835C107.474 290.196 107.261 290.79 107.261 291.617V291.809C107.261 292.409 107.362 292.835 107.564 293.085C107.766 293.333 108.027 293.457 108.346 293.457C108.66 293.457 108.906 293.358 109.082 293.162C109.261 292.965 109.35 292.688 109.35 292.33C109.35 291.972 109.264 291.696 109.093 291.502C108.922 291.306 108.679 291.207 108.365 291.207C108.071 291.207 107.809 291.302 107.58 291.491C107.352 291.68 107.238 291.953 107.238 292.311H106.84C106.84 291.744 106.995 291.288 107.304 290.943C107.615 290.598 108.033 290.425 108.557 290.425C109.126 290.425 109.584 290.598 109.929 290.943C110.274 291.285 110.446 291.74 110.446 292.307C110.446 292.874 110.247 293.338 109.848 293.698C109.45 294.058 108.949 294.239 108.346 294.239C107.746 294.239 107.236 294.048 106.817 293.668C106.398 293.284 106.188 292.658 106.188 291.79ZM111.111 292.207V290.456C111.111 289.851 111.282 289.361 111.624 288.988C111.969 288.615 112.463 288.429 113.107 288.429C113.746 288.429 114.239 288.615 114.587 288.988C114.937 289.361 115.112 289.851 115.112 290.456V292.207C115.112 292.813 114.937 293.303 114.587 293.679C114.239 294.052 113.746 294.239 113.107 294.239C112.463 294.239 111.969 294.052 111.624 293.679C111.282 293.303 111.111 292.813 111.111 292.207ZM112.211 292.246C112.211 292.591 112.278 292.876 112.414 293.1C112.549 293.325 112.78 293.438 113.107 293.438C113.434 293.438 113.667 293.325 113.805 293.1C113.943 292.876 114.012 292.591 114.012 292.246V290.418C114.012 290.075 113.943 289.792 113.805 289.567C113.667 289.34 113.434 289.226 113.107 289.226C112.78 289.226 112.549 289.34 112.414 289.567C112.278 289.792 112.211 290.075 112.211 290.418V292.246Z" fill="white"/>
<path d="M45.2459 513L43.253 505.466L41.3887 513H39.8459L37.403 504H38.663L40.6044 511.573L42.4816 504H44.0244L46.0302 511.586L47.8687 504H49.103L46.7887 513H45.2459ZM52.3163 513.103C50.5934 513.103 49.4234 511.933 49.4234 510.03V509.541C49.4234 507.664 50.6192 506.469 52.3163 506.469C54.0263 506.469 55.2092 507.651 55.2092 509.541V510.159H50.632C50.6706 511.406 51.352 512.049 52.3163 512.049C53.332 512.049 53.7049 511.676 53.962 511.007H55.1449C54.8877 512.267 54.052 513.103 52.3163 513.103ZM52.3163 507.523C51.4034 507.523 50.7606 508.063 50.6449 509.156H53.9749C53.872 508.024 53.2806 507.523 52.3163 507.523ZM59.8768 513.103C58.9511 513.103 58.2182 512.769 57.7682 512.087L57.6525 513H56.7525V504H57.9097V507.317C58.3597 506.751 59.0411 506.469 59.8768 506.469C61.3297 506.469 62.4097 507.549 62.4097 509.541V510.03C62.4097 512.01 61.3168 513.103 59.8768 513.103ZM59.5554 511.997C60.5711 511.997 61.2011 511.354 61.2011 510.03V509.541C61.2011 508.217 60.5582 507.574 59.5554 507.574C58.6297 507.574 57.9354 508.23 57.9097 509.451V510.03C57.9097 511.303 58.6039 511.997 59.5554 511.997Z" fill="#8F8F8F"/>
<path d="M22.0964 32V23H24.9892C27.2392 23 28.1392 23.9 28.1392 25.4043C28.1392 26.2271 27.7664 26.9086 26.9821 27.32C27.9464 27.7057 28.3964 28.4771 28.3964 29.4671C28.3964 31.1 27.4964 32 25.2464 32H22.0964ZM25.2464 27.9114H23.3049V30.8943H25.2464C26.6349 30.8943 27.1364 30.3929 27.1364 29.4029C27.1364 28.4129 26.6349 27.9114 25.2464 27.9114ZM24.9892 24.1057H23.3049V26.8314H24.9892C26.3778 26.8314 26.8792 26.33 26.8792 25.4686C26.8792 24.6071 26.3778 24.1057 24.9892 24.1057ZM31.6122 32.1029C30.275 32.1029 29.555 31.3829 29.555 30.2C29.555 28.8886 30.3393 28.1043 32.3836 28.1043H33.6693V27.6286C33.6693 26.9086 33.2579 26.4971 32.3836 26.4971C31.5222 26.4971 31.1622 26.8571 31.0979 27.3714H29.8122C29.8765 26.2786 30.6865 25.4686 32.3836 25.4686C33.9907 25.4686 34.8265 26.3043 34.8265 27.6286V32H33.9265L33.785 30.9457C33.3222 31.6786 32.5507 32.1029 31.6122 32.1029ZM31.7407 31.0743C32.8593 31.0743 33.6693 30.2643 33.6693 29.3129V29.0814H32.3836C31.2007 29.0814 30.7636 29.5186 30.7636 30.1743C30.7636 30.7143 31.1236 31.0743 31.7407 31.0743ZM39.1919 32.1029C37.4176 32.1029 36.299 30.9843 36.299 29.03V28.5414C36.299 26.6 37.4304 25.4686 39.1919 25.4686C40.6961 25.4686 41.5704 26.3429 41.8276 27.4357H40.5933C40.4004 26.9857 39.989 26.5743 39.1276 26.5743C38.1633 26.5743 37.5076 27.23 37.5076 28.5414V29.03C37.5076 30.3286 38.1761 30.9971 39.1276 30.9971C40.0019 30.9971 40.4004 30.5986 40.5933 30.0071H41.8276C41.5704 31.2414 40.6961 32.1029 39.1919 32.1029ZM47.1618 32L45.3361 29.2357L44.3332 30.47V32H43.1761V23H44.3332V28.8757L46.9303 25.5714H48.3189L46.0946 28.3871L48.5761 32H47.1618ZM48.8297 29.21V28.1043H52.8154V29.21H48.8297ZM56.8704 32.1029C55.1476 32.1029 53.9776 30.9329 53.9776 29.03V28.5414C53.9776 26.6643 55.1733 25.4686 56.8704 25.4686C58.5804 25.4686 59.7633 26.6514 59.7633 28.5414V29.1586H55.1861C55.2247 30.4057 55.9061 31.0486 56.8704 31.0486C57.8861 31.0486 58.259 30.6757 58.5161 30.0071H59.699C59.4419 31.2671 58.6061 32.1029 56.8704 32.1029ZM56.8704 26.5229C55.9576 26.5229 55.3147 27.0629 55.199 28.1557H58.529C58.4261 27.0243 57.8347 26.5229 56.8704 26.5229ZM61.3066 32V25.5714H62.2066L62.3224 26.4586C62.7724 25.8286 63.4924 25.4686 64.3924 25.4686C65.8709 25.4686 66.8352 26.4329 66.8352 28.2071V32H65.6781V28.2071C65.6781 27.1143 65.1381 26.5743 64.1995 26.5743C63.1581 26.5743 62.4895 27.2171 62.4638 28.1429V32H61.3066ZM70.8492 32.1029C69.3834 32.1029 68.3163 31.0357 68.3163 29.03V28.5414C68.3163 26.5486 69.3963 25.4686 70.862 25.4686C71.6849 25.4686 72.3534 25.7514 72.8163 26.3171V23H73.9734V32H73.0734L72.9449 31.0871C72.4949 31.7686 71.762 32.1029 70.8492 32.1029ZM71.1706 30.9971C72.0963 30.9971 72.7777 30.3414 72.8163 29.1329V28.4514C72.7777 27.23 72.0963 26.5743 71.1706 26.5743C70.1549 26.5743 69.5249 27.2043 69.5249 28.5414V29.03C69.5249 30.3414 70.1677 30.9971 71.1706 30.9971Z" fill="#8F8F8F"/>
<path d="M201.339 328.961L211.368 345.53H191.311L201.339 328.961Z" fill="#5424F5"/>
<path d="M197.944 343.733L200.302 338.547H197.096V337.534H201.55V338.27L199.195 343.733H197.944ZM202.463 343.733V342.963L204.873 340.574C205.134 340.31 205.33 340.069 205.461 339.85C205.594 339.629 205.661 339.397 205.661 339.156C205.661 338.906 205.579 338.703 205.414 338.547C205.249 338.388 205.021 338.309 204.728 338.309C204.43 338.306 204.186 338.4 203.996 338.59C203.806 338.78 203.704 339.055 203.689 339.416V339.471H202.459V339.416C202.459 338.817 202.673 338.333 203.102 337.964C203.533 337.592 204.077 337.406 204.733 337.406C205.4 337.406 205.925 337.571 206.308 337.9C206.694 338.229 206.887 338.632 206.887 339.109C206.887 339.501 206.782 339.856 206.572 340.174C206.365 340.489 206.09 340.815 205.746 341.153L204.073 342.801H207.045V343.733H202.463Z" fill="white"/>
<path d="M323.482 201.022L313.454 184.453L333.511 184.453L323.482 201.022Z" fill="#5424F5"/>
<path d="M321.219 193.121V188.097L319.657 188.714V187.675L321.892 186.849H322.433V193.121H321.219ZM324.649 190.988V189.05C324.649 188.378 324.839 187.834 325.219 187.42C325.6 187.002 326.148 186.794 326.863 186.794C327.57 186.794 328.116 187.002 328.502 187.42C328.888 187.834 329.081 188.378 329.081 189.05V190.988C329.081 191.663 328.888 192.21 328.502 192.627C328.116 193.042 327.57 193.249 326.863 193.249C326.148 193.249 325.6 193.042 325.219 192.627C324.839 192.21 324.649 191.663 324.649 190.988ZM325.888 191.043C325.888 191.421 325.962 191.733 326.109 191.98C326.257 192.224 326.508 192.346 326.863 192.346C327.215 192.346 327.466 192.224 327.617 191.98C327.767 191.733 327.842 191.421 327.842 191.043V188.999C327.842 188.622 327.767 188.311 327.617 188.067C327.466 187.82 327.215 187.696 326.863 187.696C326.508 187.696 326.257 187.82 326.109 188.067C325.962 188.311 325.888 188.622 325.888 188.999V191.043Z" fill="white"/>
<path d="M254.576 275.473L253.601 272.547H249.22L248.261 275.473H246.178L250.311 263.901H252.625L256.758 275.473H254.576ZM250.642 268.265L249.798 270.794H253.022L252.195 268.265L251.418 265.885L250.642 268.265ZM260.537 275.621C258.62 275.621 257.264 274.282 257.264 271.604V271.076C257.264 268.447 258.653 267.059 260.537 267.059C261.546 267.059 262.372 267.389 262.951 268.034V263.901H264.868V275.473H263.364L263.182 274.365C262.603 275.208 261.678 275.621 260.537 275.621ZM261.116 273.836C262.141 273.836 262.901 273.109 262.951 271.72V271.076C262.951 269.621 262.174 268.844 261.116 268.844C259.959 268.844 259.281 269.505 259.281 271.076V271.604C259.281 273.125 259.992 273.836 261.116 273.836ZM270.481 275.621C268.002 275.621 266.514 274.134 266.514 271.604V271.076C266.514 268.579 268.035 267.059 270.481 267.059C272.961 267.059 274.449 268.546 274.449 271.076V271.604C274.449 274.101 272.928 275.621 270.481 275.621ZM270.481 273.836C271.721 273.836 272.432 273.125 272.432 271.604V271.076C272.432 269.588 271.688 268.844 270.481 268.844C269.242 268.844 268.531 269.555 268.531 271.076V271.604C268.531 273.092 269.275 273.836 270.481 273.836ZM280.43 275.621C279.421 275.621 278.595 275.307 278.016 274.646V278.779H276.099V267.207H277.603L277.785 268.331C278.363 267.472 279.273 267.059 280.43 267.059C282.331 267.059 283.703 268.431 283.703 271.076V271.604C283.703 274.233 282.314 275.621 280.43 275.621ZM279.851 273.836C281.008 273.836 281.686 273.158 281.686 271.604V271.076C281.686 269.555 280.975 268.844 279.851 268.844C278.81 268.844 278.049 269.588 278.016 270.976V271.604C278.016 273.059 278.793 273.836 279.851 273.836ZM284.357 268.893V267.207H285.845V264.893H287.762V267.207H289.812V268.893H287.762V272.547C287.762 273.406 288.142 273.787 288.919 273.787H289.977V275.473H288.572C286.82 275.473 285.845 274.497 285.845 272.745V268.893H284.357Z" fill="#1CDB74"/>
<rect x="298.469" y="281.939" width="15.6967" height="15.6967" rx="7.84836" fill="#49EB94"/>
<path d="M301.839 290.823V290.766H302.92V290.823C302.92 291.068 303.002 291.261 303.165 291.402C303.331 291.542 303.573 291.613 303.889 291.613C304.191 291.613 304.43 291.519 304.606 291.333C304.785 291.146 304.874 290.87 304.874 290.505C304.874 290.13 304.787 289.855 304.614 289.681C304.442 289.507 304.206 289.421 303.905 289.421C303.682 289.421 303.489 289.464 303.326 289.551C303.162 289.635 303.021 289.744 302.901 289.877L302.061 289.539L302.345 286.707H305.679V287.581H303.215L303.081 288.919C303.216 288.837 303.369 288.77 303.541 288.719C303.712 288.666 303.908 288.639 304.131 288.639C304.637 288.639 305.068 288.804 305.426 289.133C305.786 289.46 305.966 289.918 305.966 290.505C305.966 291.093 305.767 291.556 305.369 291.896C304.973 292.233 304.479 292.402 303.889 292.402C303.258 292.402 302.759 292.253 302.391 291.954C302.023 291.652 301.839 291.275 301.839 290.823ZM306.612 289.953V289.838C306.612 288.868 306.908 288.09 307.501 287.505C308.094 286.917 308.971 286.623 310.134 286.623H310.21V287.459H310.134C309.349 287.459 308.745 287.639 308.321 287.999C307.897 288.359 307.685 288.953 307.685 289.781V289.972C307.685 290.573 307.786 290.998 307.988 291.249C308.189 291.496 308.45 291.62 308.769 291.62C309.084 291.62 309.329 291.522 309.505 291.325C309.684 291.129 309.773 290.851 309.773 290.494C309.773 290.136 309.688 289.86 309.517 289.666C309.346 289.469 309.103 289.371 308.789 289.371C308.495 289.371 308.233 289.465 308.003 289.654C307.776 289.843 307.662 290.117 307.662 290.474H307.263C307.263 289.907 307.418 289.451 307.727 289.106C308.039 288.761 308.456 288.589 308.98 288.589C309.55 288.589 310.007 288.761 310.352 289.106C310.697 289.449 310.869 289.903 310.869 290.471C310.869 291.038 310.67 291.502 310.272 291.862C309.873 292.222 309.372 292.402 308.769 292.402C308.169 292.402 307.659 292.212 307.24 291.831C306.821 291.448 306.612 290.822 306.612 289.953Z" fill="white"/>
<rect x="303.979" y="265.408" width="15.6967" height="15.6967" rx="7.84836" fill="#49EB94"/>
<path d="M307.349 274.292V274.235H308.43V274.292C308.43 274.538 308.512 274.731 308.675 274.871C308.841 275.012 309.083 275.082 309.399 275.082C309.701 275.082 309.94 274.989 310.116 274.802C310.295 274.616 310.384 274.34 310.384 273.974C310.384 273.599 310.297 273.324 310.124 273.15C309.952 272.977 309.716 272.89 309.415 272.89C309.192 272.89 309 272.933 308.836 273.02C308.672 273.104 308.531 273.213 308.411 273.346L307.571 273.009L307.855 270.177H311.189V271.05H308.725L308.591 272.388C308.726 272.306 308.879 272.24 309.051 272.189C309.222 272.135 309.418 272.108 309.641 272.108C310.147 272.108 310.578 272.273 310.936 272.602C311.296 272.929 311.476 273.387 311.476 273.974C311.476 274.562 311.277 275.026 310.879 275.365C310.483 275.703 309.989 275.871 309.399 275.871C308.768 275.871 308.269 275.722 307.901 275.423C307.533 275.121 307.349 274.745 307.349 274.292ZM312.122 273.423V273.308C312.122 272.337 312.418 271.559 313.011 270.974C313.604 270.386 314.481 270.092 315.644 270.092H315.72V270.928H315.644C314.859 270.928 314.255 271.108 313.831 271.468C313.407 271.828 313.195 272.422 313.195 273.25V273.442C313.195 274.042 313.296 274.467 313.498 274.718C313.699 274.966 313.96 275.09 314.279 275.09C314.594 275.09 314.839 274.991 315.015 274.794C315.194 274.598 315.283 274.321 315.283 273.963C315.283 273.605 315.198 273.329 315.027 273.135C314.856 272.938 314.613 272.84 314.299 272.84C314.005 272.84 313.743 272.935 313.513 273.124C313.286 273.313 313.172 273.586 313.172 273.944H312.773C312.773 273.377 312.928 272.921 313.237 272.576C313.549 272.231 313.966 272.058 314.49 272.058C315.06 272.058 315.517 272.231 315.862 272.576C316.207 272.918 316.379 273.373 316.379 273.94C316.379 274.507 316.18 274.971 315.782 275.331C315.383 275.691 314.882 275.871 314.279 275.871C313.679 275.871 313.169 275.681 312.75 275.3C312.331 274.917 312.122 274.291 312.122 273.423Z" fill="white"/>
<rect x="255.306" y="237.857" width="15.6967" height="15.6967" rx="7.84836" fill="#49EB94"/>
<path d="M258.676 246.741V246.684H259.756V246.741C259.756 246.986 259.838 247.179 260.002 247.32C260.168 247.46 260.409 247.531 260.726 247.531C261.027 247.531 261.266 247.437 261.443 247.251C261.621 247.064 261.711 246.788 261.711 246.423C261.711 246.048 261.624 245.773 261.45 245.599C261.279 245.425 261.043 245.339 260.741 245.339C260.519 245.339 260.326 245.382 260.163 245.469C259.999 245.553 259.857 245.662 259.737 245.795L258.898 245.457L259.182 242.625H262.516V243.499H260.052L259.917 244.837C260.053 244.755 260.206 244.688 260.377 244.637C260.548 244.584 260.745 244.557 260.967 244.557C261.473 244.557 261.905 244.722 262.263 245.051C262.623 245.378 262.803 245.835 262.803 246.423C262.803 247.011 262.604 247.474 262.205 247.814C261.809 248.151 261.316 248.32 260.726 248.32C260.095 248.32 259.595 248.171 259.228 247.872C258.86 247.57 258.676 247.193 258.676 246.741ZM263.449 245.871V245.756C263.449 244.785 263.745 244.008 264.338 243.422C264.93 242.835 265.808 242.541 266.97 242.541H267.047V243.376H266.97C266.186 243.376 265.582 243.557 265.158 243.917C264.734 244.277 264.522 244.871 264.522 245.699V245.89C264.522 246.491 264.622 246.916 264.824 247.167C265.026 247.414 265.287 247.538 265.606 247.538C265.92 247.538 266.166 247.44 266.342 247.243C266.521 247.046 266.61 246.769 266.61 246.412C266.61 246.054 266.525 245.778 266.353 245.584C266.182 245.387 265.939 245.289 265.625 245.289C265.331 245.289 265.07 245.383 264.84 245.572C264.612 245.761 264.499 246.035 264.499 246.392H264.1C264.1 245.825 264.255 245.369 264.564 245.024C264.875 244.679 265.293 244.507 265.817 244.507C266.387 244.507 266.844 244.679 267.189 245.024C267.534 245.367 267.706 245.821 267.706 246.389C267.706 246.956 267.507 247.419 267.108 247.78C266.71 248.14 266.209 248.32 265.606 248.32C265.006 248.32 264.496 248.13 264.077 247.749C263.658 247.366 263.449 246.74 263.449 245.871Z" fill="white"/>
<rect x="272.958" y="281.037" width="15.6967" height="15.6967" rx="7.84836" fill="#49EB94"/>
<path d="M276.327 289.921V289.863H277.408V289.921C277.408 290.166 277.49 290.359 277.653 290.5C277.819 290.64 278.061 290.71 278.378 290.71C278.679 290.71 278.918 290.617 279.094 290.431C279.273 290.244 279.362 289.968 279.362 289.603C279.362 289.227 279.276 288.953 279.102 288.779C278.931 288.605 278.694 288.518 278.393 288.518C278.171 288.518 277.978 288.562 277.814 288.649C277.651 288.733 277.509 288.841 277.389 288.974L276.55 288.637L276.833 285.805H280.167V286.679H277.703L277.569 288.016C277.704 287.935 277.858 287.868 278.029 287.817C278.2 287.763 278.397 287.737 278.619 287.737C279.125 287.737 279.557 287.901 279.914 288.231C280.275 288.558 280.455 289.015 280.455 289.603C280.455 290.19 280.255 290.654 279.857 290.994C279.461 291.331 278.968 291.5 278.378 291.5C277.747 291.5 277.247 291.35 276.879 291.051C276.511 290.75 276.327 290.373 276.327 289.921ZM281.1 289.051V288.936C281.1 287.965 281.397 287.187 281.989 286.602C282.582 286.015 283.46 285.721 284.622 285.721H284.699V286.556H284.622C283.838 286.556 283.233 286.736 282.809 287.097C282.385 287.457 282.173 288.051 282.173 288.879V289.07C282.173 289.67 282.274 290.096 282.476 290.346C282.678 290.594 282.938 290.718 283.258 290.718C283.572 290.718 283.817 290.62 283.993 290.423C284.172 290.226 284.262 289.949 284.262 289.591C284.262 289.234 284.176 288.958 284.005 288.764C283.834 288.567 283.591 288.468 283.277 288.468C282.983 288.468 282.721 288.563 282.491 288.752C282.264 288.941 282.15 289.214 282.15 289.572H281.752C281.752 289.005 281.906 288.549 282.215 288.204C282.527 287.859 282.945 287.687 283.468 287.687C284.038 287.687 284.495 287.859 284.84 288.204C285.185 288.546 285.358 289.001 285.358 289.568C285.358 290.135 285.158 290.599 284.76 290.959C284.361 291.32 283.861 291.5 283.258 291.5C282.657 291.5 282.148 291.309 281.729 290.929C281.31 290.546 281.1 289.92 281.1 289.051Z" fill="white"/>
<rect x="268.163" y="218.571" width="15.6967" height="15.6967" rx="7.84836" fill="#49EB94"/>
<path d="M275.728 228.919V224.386L274.31 224.949V224.018L276.334 223.271H276.809V228.919H275.728Z" fill="white"/>
<path d="M253.694 114.276L252.719 111.35H248.338L247.379 114.276H245.296L249.429 102.704H251.743L255.876 114.276H253.694ZM249.76 107.069L248.916 109.598H252.14L251.313 107.069L250.536 104.688L249.76 107.069ZM259.854 114.425C257.605 114.425 256.547 113.367 256.382 111.548H258.399C258.564 112.491 258.911 112.838 259.854 112.838C260.961 112.838 261.308 112.491 261.308 111.962C261.308 110.143 256.547 111.515 256.547 108.292C256.547 106.92 257.605 105.862 259.854 105.862C261.953 105.862 262.994 106.903 263.16 108.655H261.143C260.978 107.763 260.664 107.449 259.854 107.449C258.911 107.449 258.564 107.796 258.564 108.242C258.564 109.879 263.325 108.507 263.325 111.912C263.325 113.367 262.267 114.425 259.854 114.425ZM267.957 114.425C265.709 114.425 264.651 113.367 264.486 111.548H266.503C266.668 112.491 267.015 112.838 267.957 112.838C269.065 112.838 269.412 112.491 269.412 111.962C269.412 110.143 264.651 111.515 264.651 108.292C264.651 106.92 265.709 105.862 267.957 105.862C270.057 105.862 271.098 106.903 271.264 108.655H269.247C269.082 107.763 268.767 107.449 267.957 107.449C267.015 107.449 266.668 107.796 266.668 108.242C266.668 109.879 271.429 108.507 271.429 111.912C271.429 113.367 270.371 114.425 267.957 114.425ZM276.475 114.425C274.111 114.425 272.59 112.904 272.59 110.408V109.879C272.59 107.383 274.111 105.862 276.475 105.862C278.872 105.862 280.359 107.416 280.359 110.143V110.788H274.507C274.607 112.16 275.301 112.739 276.475 112.739C277.648 112.739 278.128 112.259 278.293 111.714H280.277C279.946 113.268 278.789 114.425 276.475 114.425ZM276.475 107.548C275.367 107.548 274.706 108.077 274.54 109.267H278.409C278.26 108.044 277.599 107.548 276.475 107.548ZM284.988 114.425C282.74 114.425 281.682 113.367 281.517 111.548H283.534C283.699 112.491 284.046 112.838 284.988 112.838C286.096 112.838 286.443 112.491 286.443 111.962C286.443 110.143 281.682 111.515 281.682 108.292C281.682 106.92 282.74 105.862 284.988 105.862C287.088 105.862 288.129 106.903 288.295 108.655H286.278C286.113 107.763 285.798 107.449 284.988 107.449C284.046 107.449 283.699 107.796 283.699 108.242C283.699 109.879 288.46 108.507 288.46 111.912C288.46 113.367 287.402 114.425 284.988 114.425ZM293.092 114.425C290.844 114.425 289.786 113.367 289.621 111.548H291.638C291.803 112.491 292.15 112.838 293.092 112.838C294.2 112.838 294.547 112.491 294.547 111.962C294.547 110.143 289.786 111.515 289.786 108.292C289.786 106.92 290.844 105.862 293.092 105.862C295.192 105.862 296.233 106.903 296.398 108.655H294.382C294.216 107.763 293.902 107.449 293.092 107.449C292.15 107.449 291.803 107.796 291.803 108.242C291.803 109.879 296.564 108.507 296.564 111.912C296.564 113.367 295.506 114.425 293.092 114.425Z" fill="#00B3FF"/>
<rect x="245.204" y="30.3062" width="58.4267" height="20.0569" rx="10.0285" fill="white"/>
<path d="M265.619 45.8345V40.7596H260.164V45.8345H258.18V34.263H260.164V39.0073H265.619V34.263H267.603V45.8345H265.619ZM273.305 45.9832C270.826 45.9832 269.338 44.4955 269.338 41.9663V41.4373C269.338 38.9412 270.859 37.4204 273.305 37.4204C275.785 37.4204 277.273 38.9081 277.273 41.4373V41.9663C277.273 44.4624 275.752 45.9832 273.305 45.9832ZM273.305 44.1979C274.545 44.1979 275.256 43.4871 275.256 41.9663V41.4373C275.256 39.9496 274.512 39.2057 273.305 39.2057C272.065 39.2057 271.355 39.9165 271.355 41.4373V41.9663C271.355 43.4541 272.098 44.1979 273.305 44.1979ZM281.633 45.8345C279.898 45.8345 278.922 44.8592 278.922 43.1069V34.263H280.84V42.9086C280.84 43.7681 281.22 44.1484 281.981 44.1484H282.394V45.8345H281.633ZM286.413 45.9832C284.496 45.9832 283.14 44.6443 283.14 41.9663V41.4373C283.14 38.809 284.529 37.4204 286.413 37.4204C287.422 37.4204 288.248 37.751 288.827 38.3957V34.263H290.744V45.8345H289.24L289.058 44.7269C288.48 45.57 287.554 45.9832 286.413 45.9832ZM286.992 44.1979C288.017 44.1979 288.777 43.4706 288.827 42.082V41.4373C288.827 39.9826 288.05 39.2057 286.992 39.2057C285.835 39.2057 285.157 39.8669 285.157 41.4373V41.9663C285.157 43.4871 285.868 44.1979 286.992 44.1979Z" fill="#C5C5C5"/>
<rect x="247.959" y="168.061" width="42.102" height="20.0569" rx="10.0285" fill="white"/>
<path d="M253.712 173.77V172.018H262.804V173.77H259.25V183.589H257.266V173.77H253.712ZM261.819 183.589V175.324H263.324L263.472 176.25C264.051 175.555 264.927 175.175 265.952 175.175H266.779V176.961H265.952C264.448 176.961 263.737 177.671 263.737 178.795V183.589H261.819ZM268.182 183.589V175.324H270.099V183.589H268.182ZM269.141 174.332C268.446 174.332 267.901 173.787 267.901 173.092C267.901 172.398 268.446 171.853 269.141 171.853C269.818 171.853 270.38 172.398 270.38 173.092C270.38 173.787 269.818 174.332 269.141 174.332ZM274.478 183.738C272.692 183.738 271.75 182.796 271.75 181.242C271.75 179.506 272.792 178.465 275.552 178.465H276.941V177.969C276.941 177.175 276.527 176.762 275.552 176.762C274.626 176.762 274.246 177.142 274.164 177.721H272.081C272.163 176.25 273.238 175.175 275.552 175.175C277.751 175.175 278.858 176.283 278.858 177.969V183.589H277.354L277.156 182.449C276.577 183.275 275.635 183.738 274.478 183.738ZM274.808 182.151C276.032 182.151 276.941 181.242 276.941 180.201V179.953H275.552C274.246 179.953 273.767 180.432 273.767 181.176C273.767 181.771 274.147 182.151 274.808 182.151ZM283.628 183.589C281.892 183.589 280.917 182.614 280.917 180.862V172.018H282.834V180.663C282.834 181.523 283.215 181.903 283.975 181.903H284.388V183.589H283.628Z" fill="#5424F5"/>
</svg>
