<svg width="16" height="16" viewBox="0 0 16 16" fill="none" xmlns="http://www.w3.org/2000/svg">
<g clip-path="url(#clip0_1_3005)">
<path fill-rule="evenodd" clip-rule="evenodd" d="M1.62398 2.78952C1.33333 3.35995 1.33333 4.10669 1.33333 5.60016V10.4002C1.33333 11.8936 1.33333 12.6404 1.62398 13.2108C1.87965 13.7126 2.28759 14.1205 2.78936 14.3762C3.35979 14.6668 4.10653 14.6668 5.6 14.6668H10.4C11.8935 14.6668 12.6402 14.6668 13.2106 14.3762C13.7124 14.1205 14.1204 13.7126 14.376 13.2108C14.6667 12.6404 14.6667 11.8936 14.6667 10.4002V5.60016C14.6667 4.10669 14.6667 3.35995 14.376 2.78952C14.1204 2.28776 13.7124 1.87981 13.2106 1.62415C12.6402 1.3335 11.8935 1.3335 10.4 1.3335H5.6C4.10653 1.3335 3.35979 1.3335 2.78936 1.62415C2.28759 1.87981 1.87965 2.28776 1.62398 2.78952ZM12.1381 6.13823C12.3984 5.87788 12.3984 5.45577 12.1381 5.19543C11.8777 4.93508 11.4556 4.93508 11.1953 5.19543L6.66667 9.72402L4.80474 7.86209C4.54439 7.60174 4.12228 7.60174 3.86193 7.86209C3.60158 8.12244 3.60158 8.54455 3.86193 8.8049L6.19526 11.1382C6.45561 11.3986 6.87772 11.3986 7.13807 11.1382L12.1381 6.13823Z" fill="url(#paint0_linear_1_3005)"/>
</g>
<defs>
<linearGradient id="paint0_linear_1_3005" x1="14.6667" y1="11.6668" x2="1.33333" y2="11.6668" gradientUnits="userSpaceOnUse">
<stop stop-color="#009FFA"/>
<stop offset="1" stop-color="#0137FF"/>
</linearGradient>
<clipPath id="clip0_1_3005">
<rect width="16" height="16" fill="white"/>
</clipPath>
</defs>
</svg>
