<svg width="16" height="16" viewBox="0 0 16 16" fill="none" xmlns="http://www.w3.org/2000/svg">
<g clip-path="url(#clip0_1_3172)">
<path d="M11.2482 1.3335C12.4369 1.3335 12.8679 1.45726 13.3025 1.68967C13.7371 1.92208 14.0781 2.26313 14.3105 2.6977C14.5429 3.13227 14.6667 3.56332 14.6667 4.75201V11.2483C14.6667 12.437 14.5429 12.8681 14.3105 13.3026C14.0781 13.7372 13.7371 14.0782 13.3025 14.3107C12.8679 14.5431 12.4369 14.6668 11.2482 14.6668H4.75189C3.5632 14.6668 3.13215 14.5431 2.69758 14.3107C2.26301 14.0782 1.92196 13.7372 1.68955 13.3026C1.45714 12.8681 1.33337 12.437 1.33337 11.2483V4.75201C1.33337 3.56332 1.45714 3.13227 1.68955 2.6977C1.92196 2.26313 2.26301 1.92208 2.69758 1.68967C3.13215 1.45726 3.5632 1.3335 4.75189 1.3335H11.2482ZM11.6241 2.66683H4.37596C3.21434 2.66683 2.66671 3.27015 2.66671 4.37609V11.6242C2.66671 12.7302 3.21434 13.3335 4.37596 13.3335H11.6241C12.7857 13.3335 13.3334 12.7302 13.3334 11.6242V4.37609C13.3334 3.21447 12.73 2.66683 11.6241 2.66683Z" fill="#B5B7BA"/>
</g>
<defs>
<clipPath id="clip0_1_3172">
<rect width="16" height="16" fill="white"/>
</clipPath>
</defs>
</svg>
