<svg viewBox="0 0 24 24" fill="none" xmlns="http://www.w3.org/2000/svg">
<g clip-path="url(#clip0_1_2967)">
<path fill-rule="evenodd" clip-rule="evenodd" d="M16.9502 5.80108C15.8849 4.73297 14.1585 4.73297 13.0932 5.80108L7.55919 11.3495C5.8136 13.0997 5.8136 15.938 7.55919 17.6882C9.30369 19.4373 12.1313 19.4373 13.8758 17.6882L13.8783 17.6856L16.7582 14.8261C17.0522 14.5343 17.527 14.536 17.8189 14.8299C18.1107 15.1238 18.109 15.5987 17.8151 15.8905L14.9378 18.7475L14.9365 18.7488C12.6058 21.0842 8.8273 21.0837 6.49714 18.7475C4.16762 16.4119 4.16762 12.6259 6.49714 10.2903L12.0311 4.74181C13.6825 3.08606 16.3608 3.08606 18.0122 4.74181C19.6626 6.39646 19.6626 9.07838 18.0122 10.733L12.4783 16.2815C11.506 17.2563 9.92892 17.2563 8.95669 16.2815C7.98553 15.3078 7.98553 13.7299 8.95669 12.7562L8.95908 12.7538L12.0614 9.67137C12.3553 9.37942 12.8302 9.38095 13.1221 9.67478C13.4141 9.96861 13.4125 10.4435 13.1187 10.7354L10.0187 13.8155L10.0177 13.8165C9.63152 14.2048 9.63185 14.8343 10.0187 15.2222C10.4049 15.6094 11.0301 15.6094 11.4162 15.2222L16.9502 9.67376C18.0166 8.60458 18.0166 6.87027 16.9502 5.80108Z" fill="currentColor"/>
</g>
<defs>
<clipPath id="clip0_1_2967">
<rect width="24" height="24" fill="white"/>
</clipPath>
</defs>
</svg>
