<svg width="256" height="29" viewBox="0 0 256 29" fill="none" xmlns="http://www.w3.org/2000/svg">
<path d="M9 28.4996V6.37957H0V0.499569H24.88V6.37957H15.88V28.4996H9Z" fill="url(#paint0_linear_2006_2307)"/>
<path d="M20.9978 28.4996L31.9178 0.499569H39.7578L50.5178 28.4996H43.0778L40.7578 21.8196H30.5178L28.1578 28.4996H20.9978ZM32.3978 16.4996H38.9178L35.6778 7.21957L32.3978 16.4996Z" fill="url(#paint1_linear_2006_2307)"/>
<path d="M53.7253 28.4996V0.499569H60.2053L72.6453 17.4596L72.5253 0.499569H79.0053V28.4996H72.9253L60.0853 10.9796L60.2053 28.4996H53.7253Z" fill="url(#paint2_linear_2006_2307)"/>
<path d="M97.0888 28.8996C94.5821 28.8996 92.3954 28.3929 90.5287 27.3796C88.6621 26.3396 87.2221 24.8862 86.2087 23.0196C85.1954 21.1262 84.6888 18.8996 84.6888 16.3396V0.499569H91.5687V16.3396C91.5687 17.6196 91.7954 18.7396 92.2487 19.6996C92.7021 20.6596 93.3421 21.4062 94.1688 21.9396C94.9954 22.4729 95.9688 22.7396 97.0888 22.7396C98.2088 22.7396 99.1821 22.4729 100.009 21.9396C100.835 21.4062 101.475 20.6596 101.929 19.6996C102.382 18.7396 102.609 17.6196 102.609 16.3396V0.499569H109.489V16.3396C109.489 18.8996 108.982 21.1262 107.969 23.0196C106.955 24.8862 105.515 26.3396 103.649 27.3796C101.809 28.3929 99.6221 28.8996 97.0888 28.8996Z" fill="url(#paint3_linear_2006_2307)"/>
<path d="M115.171 28.4996V0.499569H122.051V12.6596L132.491 0.499569H140.691L128.451 13.6596L141.411 28.4996H132.411L122.051 15.7796V28.4996H115.171Z" fill="url(#paint4_linear_2006_2307)"/>
<path d="M143.286 28.4996V0.499569H150.166V28.4996H143.286Z" fill="url(#paint5_linear_2006_2307)"/>
<path d="M163.671 28.4996V3.21957H153.991V0.499569H176.431V3.21957H166.751V28.4996H163.671Z" fill="url(#paint6_linear_2006_2307)"/>
<path d="M181.118 28.4996V0.499569H200.238V3.21957H184.198V13.0196H195.318V15.6996H184.198V25.7796H200.398V28.4996H181.118Z" fill="url(#paint7_linear_2006_2307)"/>
<path d="M217.202 28.9396C215.202 28.9396 213.336 28.5796 211.602 27.8596C209.896 27.1129 208.389 26.0862 207.083 24.7796C205.776 23.4462 204.762 21.9129 204.042 20.1796C203.322 18.4196 202.962 16.5262 202.962 14.4996C202.962 12.4729 203.322 10.5929 204.042 8.85957C204.762 7.09957 205.776 5.56624 207.083 4.25957C208.389 2.92624 209.896 1.89957 211.602 1.17957C213.336 0.432904 215.202 0.0595703 217.202 0.0595703C218.589 0.0595703 219.909 0.246237 221.163 0.61957C222.443 0.966237 223.642 1.48624 224.762 2.17957C225.882 2.84624 226.882 3.6729 227.762 4.65957L225.723 6.77957C224.683 5.52624 223.403 4.56624 221.883 3.89957C220.389 3.20624 218.829 2.85957 217.202 2.85957C215.629 2.85957 214.163 3.1529 212.803 3.73957C211.443 4.32624 210.256 5.1529 209.243 6.21957C208.256 7.28624 207.483 8.52624 206.923 9.93957C206.363 11.3262 206.083 12.8462 206.083 14.4996C206.083 16.1262 206.363 17.6462 206.923 19.0596C207.483 20.4729 208.256 21.7129 209.243 22.7796C210.256 23.8462 211.443 24.6729 212.803 25.2596C214.163 25.8462 215.629 26.1396 217.202 26.1396C218.829 26.1396 220.389 25.7929 221.883 25.0996C223.403 24.4062 224.683 23.4462 225.723 22.2196L227.762 24.3396C226.882 25.3262 225.882 26.1662 224.762 26.8596C223.642 27.5262 222.443 28.0462 221.163 28.4196C219.909 28.7662 218.589 28.9396 217.202 28.9396Z" fill="url(#paint8_linear_2006_2307)"/>
<path d="M233.266 28.4996V0.499569H236.346V13.0196H252.426V0.499569H255.506V28.4996H252.426V15.7796H236.346V28.4996H233.266Z" fill="url(#paint9_linear_2006_2307)"/>
<defs>
<linearGradient id="paint0_linear_2006_2307" x1="255.16" y1="0.499999" x2="118.762" y2="138.12" gradientUnits="userSpaceOnUse">
<stop stop-color="#0085FF"/>
<stop offset="0.515625" stop-color="#0038FE"/>
<stop offset="0.979167" stop-color="#5D11FF"/>
</linearGradient>
<linearGradient id="paint1_linear_2006_2307" x1="255.16" y1="0.499999" x2="118.762" y2="138.12" gradientUnits="userSpaceOnUse">
<stop stop-color="#0085FF"/>
<stop offset="0.515625" stop-color="#0038FE"/>
<stop offset="0.979167" stop-color="#5D11FF"/>
</linearGradient>
<linearGradient id="paint2_linear_2006_2307" x1="255.16" y1="0.499999" x2="118.762" y2="138.12" gradientUnits="userSpaceOnUse">
<stop stop-color="#0085FF"/>
<stop offset="0.515625" stop-color="#0038FE"/>
<stop offset="0.979167" stop-color="#5D11FF"/>
</linearGradient>
<linearGradient id="paint3_linear_2006_2307" x1="255.16" y1="0.499999" x2="118.762" y2="138.12" gradientUnits="userSpaceOnUse">
<stop stop-color="#0085FF"/>
<stop offset="0.515625" stop-color="#0038FE"/>
<stop offset="0.979167" stop-color="#5D11FF"/>
</linearGradient>
<linearGradient id="paint4_linear_2006_2307" x1="255.16" y1="0.499999" x2="118.762" y2="138.12" gradientUnits="userSpaceOnUse">
<stop stop-color="#0085FF"/>
<stop offset="0.515625" stop-color="#0038FE"/>
<stop offset="0.979167" stop-color="#5D11FF"/>
</linearGradient>
<linearGradient id="paint5_linear_2006_2307" x1="255.16" y1="0.499999" x2="118.762" y2="138.12" gradientUnits="userSpaceOnUse">
<stop stop-color="#0085FF"/>
<stop offset="0.515625" stop-color="#0038FE"/>
<stop offset="0.979167" stop-color="#5D11FF"/>
</linearGradient>
<linearGradient id="paint6_linear_2006_2307" x1="255.16" y1="0.499999" x2="118.762" y2="138.12" gradientUnits="userSpaceOnUse">
<stop stop-color="#0085FF"/>
<stop offset="0.515625" stop-color="#0038FE"/>
<stop offset="0.979167" stop-color="#5D11FF"/>
</linearGradient>
<linearGradient id="paint7_linear_2006_2307" x1="255.16" y1="0.499999" x2="118.762" y2="138.12" gradientUnits="userSpaceOnUse">
<stop stop-color="#0085FF"/>
<stop offset="0.515625" stop-color="#0038FE"/>
<stop offset="0.979167" stop-color="#5D11FF"/>
</linearGradient>
<linearGradient id="paint8_linear_2006_2307" x1="255.16" y1="0.499999" x2="118.762" y2="138.12" gradientUnits="userSpaceOnUse">
<stop stop-color="#0085FF"/>
<stop offset="0.515625" stop-color="#0038FE"/>
<stop offset="0.979167" stop-color="#5D11FF"/>
</linearGradient>
<linearGradient id="paint9_linear_2006_2307" x1="255.16" y1="0.499999" x2="118.762" y2="138.12" gradientUnits="userSpaceOnUse">
<stop stop-color="#0085FF"/>
<stop offset="0.515625" stop-color="#0038FE"/>
<stop offset="0.979167" stop-color="#5D11FF"/>
</linearGradient>
</defs>
</svg>
