<svg width="588" height="588" viewBox="0 0 588 588" fill="none" xmlns="http://www.w3.org/2000/svg">
<line x1="292.525" y1="524.525" x2="292.525" y2="63.4748" stroke="#DBDBDB" stroke-width="0.949555" stroke-linecap="round"/>
<line x1="66.4748" y1="293.525" x2="519.525" y2="293.525" stroke="#DBDBDB" stroke-width="0.949555" stroke-linecap="round"/>
<circle cx="294.5" cy="294.5" r="293.5" fill="white"/>
<circle opacity="0.3" cx="294" cy="295" r="211" stroke="#00B2FF" stroke-linecap="round"/>
<circle opacity="0.3" cx="294" cy="295" r="138" stroke="#4C25F4" stroke-linecap="round"/>
<circle opacity="0.3" cx="294" cy="294" r="68" stroke="#49EB94" stroke-linecap="round"/>
<circle cx="293.5" cy="294.5" r="7.5" fill="white"/>
<path d="M510.818 556L509.866 553.312H505.89L504.938 556H503.566L507.136 546.2H508.676L512.246 556H510.818ZM507.164 549.756L506.324 552.108H509.432L508.606 549.756L507.892 547.67L507.164 549.756ZM513.512 556V549H514.492L514.618 549.966C515.108 549.28 515.892 548.888 516.872 548.888C518.482 548.888 519.532 549.938 519.532 551.87V556H518.272V551.87C518.272 550.68 517.684 550.092 516.662 550.092C515.528 550.092 514.8 550.792 514.772 551.8V556H513.512ZM523.903 556.112C522.307 556.112 521.145 554.95 521.145 552.766V552.234C521.145 550.064 522.321 548.888 523.917 548.888C524.813 548.888 525.541 549.196 526.045 549.812V546.2H527.305V556H526.325L526.185 555.006C525.695 555.748 524.897 556.112 523.903 556.112ZM524.253 554.908C525.261 554.908 526.003 554.194 526.045 552.878V552.136C526.003 550.806 525.261 550.092 524.253 550.092C523.147 550.092 522.461 550.778 522.461 552.234V552.766C522.461 554.194 523.161 554.908 524.253 554.908ZM529.399 556V549H530.379L530.505 549.952C530.981 549.266 531.765 548.888 532.689 548.888H533.389V550.092H532.689C531.401 550.092 530.687 550.792 530.659 551.8V556H529.399ZM537.38 556.112C535.42 556.112 534.16 554.852 534.16 552.766V552.234C534.16 550.162 535.434 548.888 537.38 548.888C539.34 548.888 540.6 550.148 540.6 552.234V552.766C540.6 554.838 539.326 556.112 537.38 556.112ZM537.38 554.908C538.556 554.908 539.284 554.18 539.284 552.766V552.234C539.284 550.834 538.542 550.092 537.38 550.092C536.204 550.092 535.476 550.82 535.476 552.234V552.766C535.476 554.166 536.218 554.908 537.38 554.908ZM542.39 556V549H543.65V556H542.39ZM543.02 547.936C542.544 547.936 542.18 547.572 542.18 547.096C542.18 546.62 542.544 546.256 543.02 546.256C543.496 546.256 543.86 546.62 543.86 547.096C543.86 547.572 543.496 547.936 543.02 547.936ZM548.198 556.112C546.602 556.112 545.44 554.95 545.44 552.766V552.234C545.44 550.064 546.616 548.888 548.212 548.888C549.108 548.888 549.836 549.196 550.34 549.812V546.2H551.6V556H550.62L550.48 555.006C549.99 555.748 549.192 556.112 548.198 556.112ZM548.548 554.908C549.556 554.908 550.298 554.194 550.34 552.878V552.136C550.298 550.806 549.556 550.092 548.548 550.092C547.442 550.092 546.756 550.778 546.756 552.234V552.766C546.756 554.194 547.456 554.908 548.548 554.908Z" fill="#8F8F8F"/>
<path d="M510.629 51V44H511.889V51H510.629ZM511.259 42.936C510.783 42.936 510.419 42.572 510.419 42.096C510.419 41.62 510.783 41.256 511.259 41.256C511.735 41.256 512.099 41.62 512.099 42.096C512.099 42.572 511.735 42.936 511.259 42.936ZM518.019 51.112C515.527 51.112 513.819 49.404 513.819 46.506V45.694C513.819 42.824 515.555 41.088 518.019 41.088C520.511 41.088 522.219 42.796 522.219 45.694V46.506C522.219 49.376 520.483 51.112 518.019 51.112ZM518.019 49.852C519.671 49.852 520.847 48.69 520.847 46.506V45.694C520.847 43.538 519.657 42.348 518.019 42.348C516.367 42.348 515.191 43.51 515.191 45.694V46.506C515.191 48.662 516.395 49.852 518.019 49.852ZM527.258 51.112C524.962 51.112 523.828 50.048 523.688 47.85H525.088C525.214 49.278 525.844 49.852 527.258 49.852C528.77 49.852 529.456 49.166 529.456 48.312C529.456 45.876 523.828 47.318 523.828 43.748C523.828 42.236 524.99 41.088 527.258 41.088C529.512 41.088 530.548 42.124 530.688 44.07H529.288C529.134 42.866 528.63 42.348 527.258 42.348C525.83 42.348 525.2 42.964 525.2 43.748C525.2 46.058 530.828 44.602 530.828 48.326C530.828 49.964 529.68 51.112 527.258 51.112Z" fill="#8F8F8F"/>
<rect x="184" y="240" width="17.092" height="17.092" rx="8.54599" fill="#5424F5"/>
<path d="M187.686 249.952V249.885H188.871V249.948C188.871 250.215 188.96 250.425 189.138 250.578C189.316 250.728 189.573 250.803 189.91 250.803C190.235 250.803 190.491 250.703 190.678 250.503C190.867 250.3 190.961 250.001 190.961 249.606C190.961 249.202 190.87 248.906 190.686 248.717C190.502 248.528 190.249 248.433 189.927 248.433C189.687 248.433 189.48 248.479 189.305 248.571C189.132 248.662 188.981 248.782 188.85 248.93L187.928 248.55L188.237 245.47H191.846V246.43H189.188L189.042 247.874C189.187 247.785 189.351 247.712 189.534 247.657C189.718 247.598 189.931 247.569 190.173 247.569C190.724 247.569 191.192 247.749 191.579 248.107C191.968 248.464 192.163 248.96 192.163 249.597C192.163 250.24 191.949 250.746 191.521 251.116C191.095 251.486 190.558 251.671 189.91 251.671C189.22 251.671 188.676 251.508 188.278 251.183C187.883 250.855 187.686 250.444 187.686 249.952ZM192.87 249.005V248.879C192.87 247.822 193.19 246.975 193.83 246.338C194.473 245.701 195.424 245.383 196.684 245.383H196.772V246.301H196.684C195.838 246.301 195.186 246.497 194.727 246.889C194.268 247.278 194.039 247.922 194.039 248.821L194.047 249.025C194.047 249.679 194.154 250.141 194.368 250.411C194.585 250.678 194.865 250.811 195.207 250.811C195.546 250.811 195.811 250.706 196 250.494C196.189 250.28 196.284 249.98 196.284 249.593C196.284 249.206 196.192 248.907 196.008 248.696C195.827 248.484 195.566 248.379 195.224 248.379C194.909 248.379 194.631 248.482 194.389 248.687C194.147 248.893 194.026 249.187 194.026 249.568H193.592C193.592 248.956 193.759 248.462 194.093 248.087C194.427 247.708 194.877 247.519 195.445 247.519C196.062 247.519 196.556 247.707 196.926 248.082C197.299 248.455 197.485 248.95 197.485 249.568C197.485 250.186 197.271 250.69 196.843 251.083C196.414 251.475 195.87 251.671 195.211 251.671C194.557 251.671 194.004 251.464 193.55 251.049C193.097 250.632 192.87 249.95 192.87 249.005Z" fill="white"/>
<rect x="187" y="315" width="17.092" height="17.092" rx="8.54599" fill="#5424F5"/>
<path d="M192.626 326.546V321.618L191.09 322.227V321.209L193.281 320.399H193.811V326.546H192.626ZM197.848 326.546V321.618L196.313 322.227V321.209L198.503 320.399H199.033V326.546H197.848Z" fill="white"/>
<rect x="267" y="388" width="17.092" height="17.092" rx="8.54599" fill="#5424F5"/>
<path d="M270.686 397.952V397.885H271.871V397.948C271.871 398.215 271.96 398.425 272.138 398.578C272.316 398.728 272.573 398.803 272.91 398.803C273.235 398.803 273.491 398.703 273.678 398.503C273.867 398.3 273.961 398.001 273.961 397.606C273.961 397.202 273.87 396.906 273.686 396.717C273.502 396.528 273.249 396.433 272.927 396.433C272.687 396.433 272.48 396.479 272.305 396.571C272.132 396.662 271.981 396.782 271.85 396.93L270.928 396.55L271.237 393.47H274.846V394.43H272.188L272.042 395.874C272.187 395.785 272.351 395.712 272.534 395.657C272.718 395.598 272.931 395.569 273.173 395.569C273.724 395.569 274.192 395.749 274.579 396.107C274.968 396.464 275.163 396.96 275.163 397.597C275.163 398.24 274.949 398.746 274.521 399.116C274.095 399.486 273.558 399.671 272.91 399.671C272.22 399.671 271.676 399.508 271.278 399.183C270.883 398.855 270.686 398.444 270.686 397.952ZM278.658 399.546V397.885V397.672V394.993H278.608L276.938 397.313H278.891L279.204 397.255H280.598V398.202H275.77V397.434L278.695 393.47H279.826V399.546H278.658Z" fill="white"/>
<rect x="367" y="263" width="17.092" height="17.092" rx="8.54599" fill="#5424F5"/>
<path d="M370.686 272.952V272.885H371.871V272.948C371.871 273.215 371.96 273.425 372.138 273.578C372.316 273.728 372.573 273.803 372.91 273.803C373.235 273.803 373.491 273.703 373.678 273.503C373.867 273.3 373.962 273.001 373.962 272.606C373.962 272.202 373.87 271.906 373.686 271.717C373.502 271.528 373.249 271.433 372.927 271.433C372.687 271.433 372.48 271.479 372.305 271.571C372.132 271.662 371.981 271.782 371.85 271.93L370.928 271.55L371.237 268.47H374.846V269.43H372.188L372.042 270.874C372.187 270.785 372.351 270.712 372.534 270.657C372.718 270.598 372.931 270.569 373.173 270.569C373.724 270.569 374.192 270.749 374.579 271.107C374.969 271.464 375.163 271.96 375.163 272.597C375.163 273.24 374.949 273.746 374.521 274.116C374.095 274.486 373.558 274.671 372.91 274.671C372.22 274.671 371.676 274.508 371.278 274.183C370.883 273.855 370.686 273.444 370.686 272.952ZM375.858 272.881V272.835H377.047V272.881C377.047 273.173 377.14 273.4 377.327 273.561C377.516 273.722 377.784 273.803 378.132 273.803C378.441 273.803 378.695 273.722 378.896 273.561C379.096 273.397 379.196 273.145 379.196 272.806C379.196 272.475 379.082 272.226 378.854 272.059C378.629 271.892 378.336 271.809 377.978 271.809H377.352V270.961H377.936C378.261 270.961 378.52 270.882 378.712 270.724C378.904 270.562 379 270.34 379 270.056C379 269.769 378.917 269.558 378.75 269.422C378.585 269.283 378.378 269.213 378.128 269.213C377.841 269.213 377.616 269.284 377.452 269.426C377.29 269.568 377.21 269.772 377.21 270.039V270.081H376.016V270.039C376.016 269.575 376.21 269.177 376.596 268.846C376.986 268.512 377.498 268.345 378.132 268.345C378.814 268.345 379.328 268.499 379.676 268.808C380.026 269.114 380.202 269.505 380.202 269.981C380.202 270.259 380.122 270.52 379.964 270.765C379.808 271.01 379.559 271.205 379.217 271.349V271.366C379.581 271.458 379.871 271.632 380.085 271.888C380.302 272.144 380.41 272.461 380.41 272.839C380.41 273.409 380.192 273.857 379.755 274.183C379.318 274.508 378.777 274.671 378.132 274.671C377.406 274.671 376.845 274.503 376.45 274.166C376.055 273.83 375.858 273.401 375.858 272.881Z" fill="white"/>
<rect x="229" y="191" width="17.092" height="17.092" rx="8.54599" fill="#5424F5"/>
<path d="M232.636 200.881V200.835H233.825V200.881C233.825 201.173 233.918 201.4 234.104 201.561C234.294 201.722 234.562 201.803 234.91 201.803C235.219 201.803 235.473 201.722 235.673 201.561C235.874 201.397 235.974 201.145 235.974 200.806C235.974 200.475 235.86 200.226 235.632 200.059C235.406 199.892 235.114 199.809 234.755 199.809H234.13V198.961H234.714C235.039 198.961 235.298 198.882 235.49 198.724C235.682 198.562 235.778 198.34 235.778 198.056C235.778 197.769 235.694 197.558 235.527 197.422C235.363 197.283 235.156 197.213 234.906 197.213C234.619 197.213 234.394 197.284 234.23 197.426C234.068 197.568 233.988 197.772 233.988 198.039V198.081H232.794V198.039C232.794 197.575 232.988 197.177 233.374 196.846C233.764 196.512 234.276 196.345 234.91 196.345C235.591 196.345 236.106 196.499 236.454 196.808C236.804 197.114 236.98 197.505 236.98 197.981C236.98 198.259 236.9 198.52 236.742 198.765C236.586 199.01 236.337 199.205 235.995 199.349V199.366C236.359 199.458 236.649 199.632 236.863 199.888C237.08 200.144 237.188 200.461 237.188 200.839C237.188 201.409 236.97 201.857 236.533 202.183C236.096 202.508 235.555 202.671 234.91 202.671C234.184 202.671 233.623 202.503 233.228 202.166C232.833 201.83 232.636 201.401 232.636 200.881ZM237.908 200.914C237.908 200.55 238.015 200.241 238.229 199.988C238.446 199.732 238.726 199.544 239.068 199.425V199.408C238.79 199.297 238.56 199.12 238.379 198.878C238.198 198.633 238.108 198.334 238.108 197.981C238.108 197.5 238.3 197.107 238.684 196.804C239.068 196.498 239.562 196.345 240.165 196.345C240.766 196.345 241.256 196.498 241.634 196.804C242.012 197.11 242.202 197.501 242.202 197.977C242.202 198.333 242.111 198.632 241.93 198.874C241.75 199.113 241.523 199.291 241.25 199.408V199.425C241.595 199.541 241.873 199.728 242.085 199.984C242.299 200.24 242.406 200.55 242.406 200.914C242.406 201.465 242.197 201.896 241.78 202.208C241.363 202.517 240.825 202.671 240.165 202.671C239.503 202.671 238.961 202.517 238.538 202.208C238.118 201.896 237.908 201.465 237.908 200.914ZM239.105 200.856C239.105 201.145 239.196 201.38 239.377 201.561C239.557 201.739 239.82 201.828 240.165 201.828C240.51 201.828 240.77 201.739 240.946 201.561C241.121 201.38 241.208 201.145 241.208 200.856C241.208 200.558 241.121 200.318 240.946 200.134C240.77 199.95 240.51 199.859 240.165 199.859C239.82 199.859 239.557 199.95 239.377 200.134C239.196 200.318 239.105 200.558 239.105 200.856ZM239.276 198.089C239.276 198.359 239.352 198.582 239.502 198.757C239.652 198.929 239.873 199.016 240.165 199.016C240.457 199.016 240.676 198.929 240.82 198.757C240.968 198.582 241.042 198.359 241.042 198.089C241.042 197.828 240.968 197.612 240.82 197.443C240.673 197.273 240.455 197.188 240.165 197.188C239.876 197.188 239.655 197.273 239.502 197.443C239.352 197.612 239.276 197.828 239.276 198.089Z" fill="white"/>
<rect x="376" y="354" width="17.092" height="17.092" rx="8.54599" fill="#5424F5"/>
<path d="M382.297 363.914C382.297 363.55 382.404 363.241 382.618 362.988C382.835 362.732 383.115 362.544 383.457 362.425V362.408C383.179 362.297 382.949 362.12 382.768 361.878C382.588 361.633 382.497 361.334 382.497 360.981C382.497 360.5 382.689 360.107 383.073 359.804C383.457 359.498 383.951 359.345 384.554 359.345C385.155 359.345 385.645 359.498 386.023 359.804C386.402 360.11 386.591 360.501 386.591 360.977C386.591 361.333 386.5 361.632 386.319 361.874C386.139 362.113 385.912 362.291 385.639 362.408V362.425C385.984 362.541 386.262 362.728 386.474 362.984C386.688 363.24 386.795 363.55 386.795 363.914C386.795 364.465 386.587 364.896 386.169 365.208C385.752 365.517 385.214 365.671 384.554 365.671C383.892 365.671 383.35 365.517 382.927 365.208C382.507 364.896 382.297 364.465 382.297 363.914ZM383.494 363.856C383.494 364.145 383.585 364.38 383.766 364.561C383.947 364.739 384.209 364.828 384.554 364.828C384.899 364.828 385.159 364.739 385.335 364.561C385.51 364.38 385.598 364.145 385.598 363.856C385.598 363.558 385.51 363.318 385.335 363.134C385.159 362.95 384.899 362.859 384.554 362.859C384.209 362.859 383.947 362.95 383.766 363.134C383.585 363.318 383.494 363.558 383.494 363.856ZM383.666 361.089C383.666 361.359 383.741 361.582 383.891 361.757C384.041 361.929 384.262 362.016 384.554 362.016C384.846 362.016 385.065 361.929 385.21 361.757C385.357 361.582 385.431 361.359 385.431 361.089C385.431 360.828 385.357 360.612 385.21 360.443C385.062 360.273 384.844 360.188 384.554 360.188C384.265 360.188 384.044 360.273 383.891 360.443C383.741 360.612 383.666 360.828 383.666 361.089Z" fill="white"/>
<rect x="255" y="248" width="17.092" height="17.092" rx="8.54599" fill="#49EB94"/>
<path d="M261.436 259.546V257.885V257.672V254.993H261.386L259.716 257.313H261.669L261.982 257.255H263.376V258.202H258.548V257.434L261.473 253.47H262.604V259.546H261.436ZM264.738 259.546L267.05 254.463H263.904V253.47H268.273V254.188L265.961 259.546H264.738Z" fill="white"/>
<rect x="302" y="259" width="17.092" height="17.092" rx="8.54599" fill="#49EB94"/>
<path d="M308.247 268.881V268.835H309.436V268.881C309.436 269.173 309.529 269.4 309.716 269.561C309.905 269.722 310.173 269.803 310.521 269.803C310.83 269.803 311.084 269.722 311.284 269.561C311.485 269.397 311.585 269.145 311.585 268.806C311.585 268.475 311.471 268.226 311.243 268.059C311.017 267.892 310.725 267.809 310.366 267.809H309.741V266.961H310.325C310.65 266.961 310.909 266.882 311.101 266.724C311.293 266.562 311.389 266.34 311.389 266.056C311.389 265.769 311.305 265.558 311.138 265.422C310.974 265.283 310.767 265.213 310.517 265.213C310.23 265.213 310.005 265.284 309.841 265.426C309.679 265.568 309.599 265.772 309.599 266.039V266.081H308.405V266.039C308.405 265.575 308.599 265.177 308.985 264.846C309.375 264.512 309.887 264.345 310.521 264.345C311.202 264.345 311.717 264.499 312.065 264.808C312.415 265.114 312.591 265.505 312.591 265.981C312.591 266.259 312.511 266.52 312.353 266.765C312.197 267.01 311.948 267.205 311.606 267.349V267.366C311.97 267.458 312.26 267.632 312.474 267.888C312.691 268.144 312.799 268.461 312.799 268.839C312.799 269.409 312.581 269.857 312.144 270.183C311.707 270.508 311.166 270.671 310.521 270.671C309.795 270.671 309.234 270.503 308.839 270.166C308.444 269.83 308.247 269.401 308.247 268.881Z" fill="white"/>
<rect x="251.641" y="322.16" width="17.092" height="17.092" rx="8.54599" fill="#49EB94"/>
<path d="M255.326 332.112V332.045H256.511V332.108C256.511 332.375 256.6 332.585 256.778 332.738C256.957 332.888 257.214 332.963 257.55 332.963C257.876 332.963 258.132 332.863 258.318 332.663C258.507 332.46 258.602 332.161 258.602 331.766C258.602 331.362 258.51 331.066 258.327 330.877C258.143 330.688 257.89 330.593 257.567 330.593C257.328 330.593 257.121 330.639 256.945 330.731C256.773 330.823 256.621 330.942 256.491 331.09L255.568 330.71L255.877 327.63H259.487V328.59H256.829L256.682 330.034C256.827 329.945 256.991 329.873 257.175 329.817C257.359 329.759 257.571 329.729 257.813 329.729C258.364 329.729 258.833 329.909 259.22 330.268C259.609 330.624 259.804 331.12 259.804 331.757C259.804 332.4 259.59 332.906 259.161 333.276C258.736 333.646 258.199 333.831 257.55 333.831C256.861 333.831 256.317 333.668 255.919 333.343C255.524 333.015 255.326 332.604 255.326 332.112ZM260.511 331.165V331.04C260.511 329.982 260.831 329.135 261.471 328.498C262.113 327.861 263.065 327.543 264.325 327.543H264.412V328.461H264.325C263.479 328.461 262.827 328.657 262.368 329.049C261.909 329.439 261.679 330.083 261.679 330.981L261.688 331.186C261.688 331.839 261.795 332.301 262.009 332.571C262.226 332.838 262.505 332.972 262.848 332.972C263.187 332.972 263.451 332.866 263.64 332.654C263.83 332.44 263.924 332.14 263.924 331.753C263.924 331.366 263.832 331.067 263.649 330.856C263.468 330.645 263.206 330.539 262.864 330.539C262.55 330.539 262.272 330.642 262.03 330.848C261.788 331.054 261.667 331.347 261.667 331.728H261.233C261.233 331.116 261.4 330.622 261.733 330.247C262.067 329.868 262.518 329.679 263.085 329.679C263.703 329.679 264.197 329.867 264.567 330.243C264.94 330.615 265.126 331.111 265.126 331.728C265.126 332.346 264.912 332.851 264.483 333.243C264.055 333.635 263.511 333.831 262.852 333.831C262.198 333.831 261.644 333.624 261.191 333.209C260.738 332.792 260.511 332.111 260.511 331.165Z" fill="white"/>
<rect x="238" y="299" width="17.092" height="17.092" rx="8.54599" fill="#49EB94"/>
<path d="M241.686 308.952V308.885H242.871V308.948C242.871 309.215 242.96 309.425 243.138 309.578C243.316 309.728 243.573 309.803 243.91 309.803C244.235 309.803 244.491 309.703 244.678 309.503C244.867 309.3 244.961 309.001 244.961 308.606C244.961 308.202 244.87 307.906 244.686 307.717C244.502 307.528 244.249 307.433 243.927 307.433C243.687 307.433 243.48 307.479 243.305 307.571C243.132 307.662 242.981 307.782 242.85 307.93L241.928 307.55L242.237 304.47H245.846V305.43H243.188L243.042 306.874C243.187 306.785 243.351 306.712 243.534 306.657C243.718 306.598 243.931 306.569 244.173 306.569C244.724 306.569 245.192 306.749 245.579 307.107C245.968 307.464 246.163 307.96 246.163 308.597C246.163 309.24 245.949 309.746 245.521 310.116C245.095 310.486 244.558 310.671 243.91 310.671C243.22 310.671 242.676 310.508 242.278 310.183C241.883 309.855 241.686 309.444 241.686 308.952ZM246.87 308.005V307.879C246.87 306.822 247.19 305.975 247.83 305.338C248.473 304.701 249.424 304.383 250.684 304.383H250.772V305.301H250.684C249.838 305.301 249.186 305.497 248.727 305.889C248.268 306.278 248.039 306.922 248.039 307.821L248.047 308.025C248.047 308.679 248.154 309.141 248.368 309.411C248.585 309.678 248.865 309.811 249.207 309.811C249.546 309.811 249.811 309.706 250 309.494C250.189 309.28 250.284 308.98 250.284 308.593C250.284 308.206 250.192 307.907 250.008 307.696C249.827 307.484 249.566 307.379 249.224 307.379C248.909 307.379 248.631 307.482 248.389 307.687C248.147 307.893 248.026 308.187 248.026 308.568H247.592C247.592 307.956 247.759 307.462 248.093 307.087C248.427 306.708 248.877 306.519 249.445 306.519C250.062 306.519 250.556 306.707 250.926 307.082C251.299 307.455 251.485 307.95 251.485 308.568C251.485 309.186 251.271 309.69 250.843 310.083C250.414 310.475 249.87 310.671 249.211 310.671C248.557 310.671 248.004 310.464 247.55 310.049C247.097 309.632 246.87 308.95 246.87 308.005Z" fill="white"/>
<rect x="328" y="262" width="17.092" height="17.092" rx="8.54599" fill="#49EB94"/>
<path d="M332.516 273.546L334.828 268.463H331.682V267.47H336.05V268.188L333.739 273.546H332.516ZM336.941 273.546V272.791L339.311 270.45C339.57 270.191 339.763 269.954 339.891 269.74C340.019 269.523 340.083 269.297 340.083 269.06C340.083 268.815 340.001 268.615 339.837 268.459C339.676 268.303 339.452 268.226 339.165 268.226C338.87 268.223 338.63 268.316 338.443 268.505C338.257 268.691 338.155 268.961 338.139 269.315V269.365H336.937V269.315C336.937 268.728 337.148 268.253 337.571 267.892C337.994 267.527 338.527 267.345 339.169 267.345C339.823 267.345 340.338 267.506 340.713 267.829C341.092 268.152 341.281 268.547 341.281 269.014C341.281 269.395 341.179 269.742 340.976 270.053C340.773 270.365 340.502 270.686 340.163 271.017L338.51 272.632H341.435V273.546H336.941Z" fill="white"/>
<rect x="238" y="268" width="17.092" height="17.092" rx="8.54599" fill="#49EB94"/>
<path d="M244.297 277.914C244.297 277.55 244.404 277.241 244.618 276.988C244.835 276.732 245.115 276.544 245.457 276.425V276.408C245.179 276.297 244.949 276.12 244.768 275.878C244.587 275.633 244.497 275.334 244.497 274.981C244.497 274.5 244.689 274.107 245.073 273.804C245.457 273.498 245.951 273.345 246.554 273.345C247.155 273.345 247.645 273.498 248.023 273.804C248.401 274.11 248.591 274.501 248.591 274.977C248.591 275.333 248.5 275.632 248.319 275.874C248.139 276.113 247.912 276.291 247.639 276.408V276.425C247.984 276.541 248.262 276.728 248.474 276.984C248.688 277.24 248.795 277.55 248.795 277.914C248.795 278.465 248.586 278.896 248.169 279.208C247.752 279.517 247.214 279.671 246.554 279.671C245.892 279.671 245.35 279.517 244.927 279.208C244.507 278.896 244.297 278.465 244.297 277.914ZM245.494 277.856C245.494 278.145 245.585 278.38 245.766 278.561C245.946 278.739 246.209 278.828 246.554 278.828C246.899 278.828 247.159 278.739 247.335 278.561C247.51 278.38 247.597 278.145 247.597 277.856C247.597 277.558 247.51 277.318 247.335 277.134C247.159 276.95 246.899 276.859 246.554 276.859C246.209 276.859 245.946 276.95 245.766 277.134C245.585 277.318 245.494 277.558 245.494 277.856ZM245.665 275.089C245.665 275.359 245.741 275.582 245.891 275.757C246.041 275.929 246.262 276.016 246.554 276.016C246.846 276.016 247.065 275.929 247.209 275.757C247.357 275.582 247.431 275.359 247.431 275.089C247.431 274.828 247.357 274.612 247.209 274.443C247.062 274.273 246.844 274.188 246.554 274.188C246.265 274.188 246.044 274.273 245.891 274.443C245.741 274.612 245.665 274.828 245.665 275.089Z" fill="white"/>
<rect x="297" y="332" width="17.092" height="17.092" rx="8.54599" fill="#49EB94"/>
<path d="M303.436 343.546V341.885V341.672V338.993H303.386L301.716 341.313H303.669L303.982 341.255H305.376V342.202H300.548V341.434L303.473 337.47H304.604V343.546H303.436ZM305.908 341.914C305.908 341.55 306.015 341.241 306.229 340.988C306.446 340.732 306.726 340.544 307.068 340.425V340.408C306.79 340.297 306.56 340.12 306.379 339.878C306.198 339.633 306.108 339.334 306.108 338.981C306.108 338.5 306.3 338.107 306.684 337.804C307.068 337.498 307.562 337.345 308.165 337.345C308.766 337.345 309.256 337.498 309.634 337.804C310.012 338.11 310.202 338.501 310.202 338.977C310.202 339.333 310.111 339.632 309.93 339.874C309.75 340.113 309.523 340.291 309.25 340.408V340.425C309.595 340.541 309.873 340.728 310.085 340.984C310.299 341.24 310.406 341.55 310.406 341.914C310.406 342.465 310.197 342.896 309.78 343.208C309.363 343.517 308.825 343.671 308.165 343.671C307.503 343.671 306.961 343.517 306.538 343.208C306.118 342.896 305.908 342.465 305.908 341.914ZM307.105 341.856C307.105 342.145 307.196 342.38 307.377 342.561C307.557 342.739 307.82 342.828 308.165 342.828C308.51 342.828 308.77 342.739 308.946 342.561C309.121 342.38 309.208 342.145 309.208 341.856C309.208 341.558 309.121 341.318 308.946 341.134C308.77 340.95 308.51 340.859 308.165 340.859C307.82 340.859 307.557 340.95 307.377 341.134C307.196 341.318 307.105 341.558 307.105 341.856ZM307.276 339.089C307.276 339.359 307.352 339.582 307.502 339.757C307.652 339.929 307.873 340.016 308.165 340.016C308.457 340.016 308.676 339.929 308.82 339.757C308.968 339.582 309.042 339.359 309.042 339.089C309.042 338.828 308.968 338.612 308.82 338.443C308.673 338.273 308.455 338.188 308.165 338.188C307.876 338.188 307.655 338.273 307.502 338.443C307.352 338.612 307.276 338.828 307.276 339.089Z" fill="white"/>
<rect x="272" y="331" width="17.092" height="17.092" rx="8.54599" fill="#49EB94"/>
<path d="M275.686 340.952V340.885H276.871V340.948C276.871 341.215 276.96 341.425 277.138 341.578C277.316 341.728 277.573 341.803 277.91 341.803C278.235 341.803 278.491 341.703 278.678 341.503C278.867 341.3 278.961 341.001 278.961 340.606C278.961 340.202 278.87 339.906 278.686 339.717C278.502 339.528 278.249 339.433 277.927 339.433C277.687 339.433 277.48 339.479 277.305 339.571C277.132 339.662 276.981 339.782 276.85 339.93L275.928 339.55L276.237 336.47H279.846V337.43H277.188L277.042 338.874C277.187 338.785 277.351 338.712 277.534 338.657C277.718 338.598 277.931 338.569 278.173 338.569C278.724 338.569 279.192 338.749 279.579 339.107C279.968 339.464 280.163 339.96 280.163 340.597C280.163 341.24 279.949 341.746 279.521 342.116C279.095 342.486 278.558 342.671 277.91 342.671C277.22 342.671 276.676 342.508 276.278 342.183C275.883 341.855 275.686 341.444 275.686 340.952ZM280.87 340.005V339.879C280.87 338.822 281.19 337.975 281.83 337.338C282.473 336.701 283.424 336.383 284.684 336.383H284.772V337.301H284.684C283.838 337.301 283.186 337.497 282.727 337.889C282.268 338.278 282.039 338.922 282.039 339.821L282.047 340.025C282.047 340.679 282.154 341.141 282.368 341.411C282.585 341.678 282.865 341.811 283.207 341.811C283.546 341.811 283.811 341.706 284 341.494C284.189 341.28 284.284 340.98 284.284 340.593C284.284 340.206 284.192 339.907 284.008 339.696C283.827 339.484 283.566 339.379 283.224 339.379C282.909 339.379 282.631 339.482 282.389 339.687C282.147 339.893 282.026 340.187 282.026 340.568H281.592C281.592 339.956 281.759 339.462 282.093 339.087C282.427 338.708 282.877 338.519 283.445 338.519C284.062 338.519 284.556 338.707 284.926 339.082C285.299 339.455 285.485 339.95 285.485 340.568C285.485 341.186 285.271 341.69 284.843 342.083C284.414 342.475 283.87 342.671 283.211 342.671C282.557 342.671 282.004 342.464 281.55 342.049C281.097 341.632 280.87 340.95 280.87 340.005Z" fill="white"/>
<rect x="159" y="94" width="17.092" height="17.092" rx="8.54599" fill="#C5C5C5"/>
<path d="M162.686 103.952V103.885H163.871V103.948C163.871 104.215 163.96 104.425 164.138 104.578C164.316 104.728 164.573 104.803 164.91 104.803C165.235 104.803 165.491 104.703 165.678 104.503C165.867 104.3 165.961 104.001 165.961 103.606C165.961 103.202 165.87 102.906 165.686 102.717C165.502 102.528 165.249 102.433 164.927 102.433C164.687 102.433 164.48 102.479 164.305 102.571C164.132 102.662 163.981 102.782 163.85 102.93L162.928 102.55L163.237 99.4702H166.846V100.43H164.188L164.042 101.874C164.187 101.785 164.351 101.712 164.534 101.657C164.718 101.598 164.931 101.569 165.173 101.569C165.724 101.569 166.192 101.749 166.579 102.107C166.968 102.464 167.163 102.96 167.163 103.597C167.163 104.24 166.949 104.746 166.521 105.116C166.095 105.486 165.558 105.671 164.91 105.671C164.22 105.671 163.676 105.508 163.278 105.183C162.883 104.855 162.686 104.444 162.686 103.952ZM167.87 103.005V102.879C167.87 101.822 168.19 100.975 168.83 100.338C169.473 99.7011 170.424 99.3826 171.684 99.3826H171.772V100.301H171.684C170.838 100.301 170.186 100.497 169.727 100.889C169.268 101.278 169.039 101.922 169.039 102.821L169.047 103.025C169.047 103.679 169.154 104.141 169.368 104.411C169.585 104.678 169.865 104.811 170.207 104.811C170.546 104.811 170.811 104.706 171 104.494C171.189 104.28 171.284 103.98 171.284 103.593C171.284 103.206 171.192 102.907 171.008 102.696C170.827 102.484 170.566 102.379 170.224 102.379C169.909 102.379 169.631 102.482 169.389 102.687C169.147 102.893 169.026 103.187 169.026 103.568H168.592C168.592 102.956 168.759 102.462 169.093 102.087C169.427 101.708 169.877 101.519 170.445 101.519C171.062 101.519 171.556 101.707 171.926 102.082C172.299 102.455 172.485 102.95 172.485 103.568C172.485 104.186 172.271 104.69 171.843 105.083C171.414 105.475 170.87 105.671 170.211 105.671C169.557 105.671 169.004 105.464 168.55 105.049C168.097 104.632 167.87 103.95 167.87 103.005Z" fill="white"/>
<rect x="216" y="64" width="17.092" height="17.092" rx="8.54599" fill="#C5C5C5"/>
<path d="M219.636 73.8809V73.835H220.825V73.8809C220.825 74.173 220.918 74.3998 221.104 74.5611C221.294 74.7225 221.562 74.8031 221.91 74.8031C222.219 74.8031 222.473 74.7225 222.673 74.5611C222.874 74.397 222.974 74.1452 222.974 73.8058C222.974 73.4748 222.86 73.2258 222.632 73.0589C222.406 72.892 222.114 72.8085 221.755 72.8085H221.13V71.9614H221.714C222.039 71.9614 222.298 71.8821 222.49 71.7236C222.682 71.5622 222.778 71.3397 222.778 71.0559C222.778 70.7694 222.694 70.558 222.527 70.4216C222.363 70.2825 222.156 70.213 221.906 70.213C221.619 70.213 221.394 70.2839 221.23 70.4258C221.068 70.5677 220.988 70.7722 220.988 71.0392V71.081H219.794V71.0392C219.794 70.5746 219.988 70.1768 220.374 69.8458C220.764 69.512 221.276 69.345 221.91 69.345C222.591 69.345 223.106 69.4994 223.454 69.8082C223.804 70.1142 223.98 70.5051 223.98 70.9808C223.98 71.259 223.9 71.5205 223.742 71.7653C223.586 72.0101 223.337 72.2048 222.995 72.3495V72.3662C223.359 72.458 223.649 72.6319 223.863 72.8878C224.08 73.1437 224.188 73.4609 224.188 73.8392C224.188 74.4095 223.97 74.8574 223.533 75.1829C223.096 75.5083 222.555 75.6711 221.91 75.6711C221.184 75.6711 220.623 75.5028 220.228 75.1662C219.833 74.8296 219.636 74.4011 219.636 73.8809ZM224.908 73.9519V73.8851H226.093V73.9477C226.093 74.2148 226.182 74.4248 226.36 74.5778C226.538 74.728 226.795 74.8031 227.132 74.8031C227.457 74.8031 227.713 74.703 227.9 74.5027C228.089 74.2996 228.183 74.0006 228.183 73.6055C228.183 73.2021 228.092 72.9059 227.908 72.7167C227.724 72.5275 227.471 72.433 227.149 72.433C226.909 72.433 226.702 72.4789 226.527 72.5707C226.354 72.6625 226.203 72.7821 226.072 72.9295L225.15 72.5498L225.459 69.4702H229.068V70.43H226.41L226.264 71.8738C226.409 71.7848 226.573 71.7124 226.756 71.6568C226.94 71.5984 227.153 71.5692 227.395 71.5692C227.946 71.5692 228.414 71.7486 228.801 72.1075C229.191 72.4636 229.385 72.9601 229.385 73.5972C229.385 74.2398 229.171 74.7461 228.743 75.1161C228.317 75.4861 227.78 75.6711 227.132 75.6711C226.442 75.6711 225.898 75.5083 225.5 75.1829C225.105 74.8546 224.908 74.4443 224.908 73.9519Z" fill="white"/>
<rect x="345" y="61" width="17.092" height="17.092" rx="8.54599" fill="#C5C5C5"/>
<path d="M348.719 72.5459V71.7906L351.089 69.4496C351.348 69.1909 351.541 68.9545 351.669 68.7403C351.797 68.5233 351.861 68.2965 351.861 68.0601C351.861 67.8153 351.779 67.615 351.615 67.4592C351.454 67.3034 351.23 67.2255 350.943 67.2255C350.648 67.2227 350.408 67.3159 350.221 67.5051C350.035 67.6915 349.933 67.9613 349.917 68.3146V68.3647H348.715V68.3146C348.715 67.7276 348.926 67.2533 349.349 66.8917C349.772 66.5273 350.305 66.345 350.947 66.345C351.601 66.345 352.116 66.5064 352.491 66.8291C352.87 67.1518 353.059 67.5468 353.059 68.0142C353.059 68.3953 352.957 68.7417 352.754 69.0532C352.551 69.3648 352.28 69.6861 351.941 70.0172L350.288 71.632H353.213V72.5459H348.719ZM356.658 72.5459V70.8851V70.6723V67.9933H356.608L354.938 70.3134H356.891L357.204 70.255H358.598V71.2022H353.77V70.4344L356.695 66.4702H357.826V72.5459H356.658Z" fill="white"/>
<rect x="512" y="209" width="17.092" height="17.092" rx="8.54599" fill="#C5C5C5"/>
<path d="M515.602 216.427C515.602 215.815 515.817 215.316 516.245 214.929C516.676 214.54 517.221 214.345 517.881 214.345C518.532 214.345 519.085 214.552 519.542 214.967C519.998 215.381 520.226 216.061 520.226 217.007V217.137C520.226 218.191 519.903 219.037 519.258 219.674C518.615 220.308 517.664 220.627 516.404 220.629H516.32V219.711H516.404C517.252 219.711 517.906 219.515 518.365 219.123C518.824 218.731 519.053 218.088 519.053 217.195L519.049 216.986C519.049 216.338 518.941 215.879 518.724 215.609C518.507 215.337 518.226 215.2 517.881 215.2C517.541 215.2 517.277 215.306 517.088 215.518C516.899 215.726 516.804 216.021 516.804 216.402C516.804 216.783 516.896 217.078 517.08 217.287C517.263 217.496 517.525 217.6 517.864 217.6C518.181 217.6 518.461 217.498 518.703 217.295C518.948 217.092 519.07 216.803 519.07 216.427H519.5C519.5 217.034 519.333 217.523 518.999 217.896C518.665 218.269 518.215 218.455 517.647 218.455C517.032 218.455 516.537 218.27 516.162 217.9C515.789 217.53 515.602 217.039 515.602 216.427ZM520.983 218.459V216.557C520.983 215.897 521.169 215.365 521.542 214.958C521.918 214.55 522.455 214.345 523.153 214.345C523.846 214.345 524.381 214.55 524.759 214.958C525.141 215.365 525.331 215.897 525.331 216.557V218.459C525.331 219.119 525.141 219.653 524.759 220.062C524.381 220.468 523.846 220.671 523.153 220.671C522.455 220.671 521.918 220.468 521.542 220.062C521.169 219.653 520.983 219.119 520.983 218.459ZM522.193 218.505C522.193 218.878 522.265 219.186 522.41 219.428C522.558 219.67 522.805 219.791 523.153 219.791C523.503 219.791 523.752 219.67 523.9 219.428C524.047 219.186 524.121 218.878 524.121 218.505V216.507C524.121 216.137 524.047 215.831 523.9 215.589C523.752 215.347 523.503 215.226 523.153 215.226C522.805 215.226 522.558 215.347 522.41 215.589C522.265 215.831 522.193 216.137 522.193 216.507V218.505Z" fill="white"/>
<rect x="368.436" y="487.383" width="17.092" height="17.092" rx="8.54599" fill="#C5C5C5"/>
<path d="M375.563 498.929L377.875 493.846H374.728V492.853H379.097V493.571L376.785 498.929H375.563Z" fill="white"/>
<rect x="131.047" y="460.795" width="17.092" height="17.092" rx="8.54599" fill="#C5C5C5"/>
<path d="M136.673 472.341V467.413L135.137 468.022V467.004L137.328 466.194H137.858V472.341H136.673ZM139.955 470.747V470.68H141.14V470.743C141.14 471.01 141.229 471.22 141.407 471.373C141.585 471.523 141.842 471.598 142.179 471.598C142.504 471.598 142.76 471.498 142.947 471.298C143.136 471.095 143.23 470.795 143.23 470.4C143.23 469.997 143.139 469.701 142.955 469.512C142.771 469.322 142.518 469.228 142.195 469.228C141.956 469.228 141.749 469.274 141.574 469.366C141.401 469.457 141.25 469.577 141.119 469.724L140.197 469.345L140.505 466.265H144.115V467.225H141.457L141.311 468.669C141.455 468.58 141.62 468.507 141.803 468.452C141.987 468.393 142.2 468.364 142.442 468.364C142.992 468.364 143.461 468.544 143.848 468.902C144.237 469.258 144.432 469.755 144.432 470.392C144.432 471.035 144.218 471.541 143.789 471.911C143.364 472.281 142.827 472.466 142.179 472.466C141.489 472.466 140.945 472.303 140.547 471.978C140.152 471.65 139.955 471.239 139.955 470.747Z" fill="white"/>
<rect x="128" y="121" width="17.092" height="17.092" rx="8.54599" fill="#C5C5C5"/>
<path d="M133.626 132.546V127.618L132.09 128.227V127.209L134.281 126.399H134.811V132.546H133.626ZM136.941 132.546V131.791L139.311 129.45C139.57 129.191 139.763 128.954 139.891 128.74C140.019 128.523 140.083 128.297 140.083 128.06C140.083 127.815 140.001 127.615 139.837 127.459C139.676 127.303 139.452 127.226 139.165 127.226C138.87 127.223 138.63 127.316 138.443 127.505C138.257 127.691 138.155 127.961 138.139 128.315V128.365H136.937V128.315C136.937 127.728 137.148 127.253 137.571 126.892C137.994 126.527 138.527 126.345 139.169 126.345C139.823 126.345 140.338 126.506 140.713 126.829C141.092 127.152 141.281 127.547 141.281 128.014C141.281 128.395 141.179 128.742 140.976 129.053C140.773 129.365 140.502 129.686 140.163 130.017L138.51 131.632H141.435V132.546H136.941Z" fill="white"/>
<rect x="93" y="158" width="17.092" height="17.092" rx="8.54599" fill="#C5C5C5"/>
<path d="M96.7191 169.546V168.791L99.0893 166.45C99.348 166.191 99.5413 165.954 99.6693 165.74C99.7973 165.523 99.8612 165.297 99.8612 165.06C99.8612 164.815 99.7792 164.615 99.615 164.459C99.4537 164.303 99.2297 164.226 98.9432 164.226C98.6483 164.223 98.4077 164.316 98.2213 164.505C98.0349 164.691 97.9334 164.961 97.9167 165.315V165.365H96.7149V165.315C96.7149 164.728 96.9263 164.253 97.3492 163.892C97.772 163.527 98.3048 163.345 98.9474 163.345C99.6011 163.345 100.116 163.506 100.491 163.829C100.87 164.152 101.059 164.547 101.059 165.014C101.059 165.395 100.957 165.742 100.754 166.053C100.551 166.365 100.28 166.686 99.9405 167.017L98.2881 168.632H101.213V169.546H96.7191ZM104.658 169.546V167.885V167.672V164.993H104.608L102.938 167.313H104.891L105.204 167.255H106.598V168.202H101.77V167.434L104.695 163.47H105.826V169.546H104.658Z" fill="white"/>
<rect x="69" y="192" width="17.092" height="17.092" rx="8.54599" fill="#C5C5C5"/>
<path d="M73.5161 203.546L75.8279 198.463H72.6815V197.47H77.0505V198.188L74.7387 203.546H73.5161ZM77.9829 201.459V199.557C77.9829 198.897 78.1693 198.365 78.542 197.958C78.9176 197.55 79.4545 197.345 80.1528 197.345C80.8455 197.345 81.381 197.55 81.7593 197.958C82.1404 198.365 82.331 198.897 82.331 199.557V201.459C82.331 202.119 82.1404 202.653 81.7593 203.062C81.381 203.468 80.8455 203.671 80.1528 203.671C79.4545 203.671 78.9176 203.468 78.542 203.062C78.1693 202.653 77.9829 202.119 77.9829 201.459ZM79.193 201.505C79.193 201.878 79.2653 202.186 79.41 202.428C79.5574 202.67 79.805 202.791 80.1528 202.791C80.5033 202.791 80.7523 202.67 80.8997 202.428C81.0471 202.186 81.1209 201.878 81.1209 201.505V199.507C81.1209 199.137 81.0471 198.831 80.8997 198.589C80.7523 198.347 80.5033 198.226 80.1528 198.226C79.805 198.226 79.5574 198.347 79.41 198.589C79.2653 198.831 79.193 199.137 79.193 199.507V201.505Z" fill="white"/>
<line x1="293.5" y1="519" x2="293.5" y2="565" stroke="#F1F1F1"/>
<line x1="564" y1="293.5" x2="520" y2="293.5" stroke="#F1F1F1"/>
<line x1="294.5" y1="68" x2="294.5" y2="20" stroke="#F1F1F1"/>
<line x1="73" y1="293.5" x2="23" y2="293.5" stroke="#F1F1F1"/>
<line x1="148" y1="293.5" x2="96" y2="293.5" stroke="#F1F1F1"/>
<line x1="216" y1="293.5" x2="170" y2="293.5" stroke="#F1F1F1"/>
<line x1="418" y1="293.5" x2="372" y2="293.5" stroke="#F1F1F1"/>
<line x1="492" y1="293.5" x2="450" y2="293.5" stroke="#F1F1F1"/>
<line x1="294.5" y1="419" x2="294.5" y2="371" stroke="#F1F1F1"/>
<line x1="294.5" y1="143" x2="294.5" y2="93" stroke="#F1F1F1"/>
<line x1="294.5" y1="216" x2="294.5" y2="167" stroke="#F1F1F1"/>
<line x1="294.5" y1="494" x2="294.5" y2="444" stroke="#F1F1F1"/>
<rect x="55" y="233" width="17.092" height="17.092" rx="8.54599" fill="#C5C5C5"/>
<path d="M59.5161 244.546L61.8279 239.463H58.6815V238.47H63.0505V239.188L60.7387 244.546H59.5161ZM63.9078 242.914C63.9078 242.55 64.0149 242.241 64.2291 241.988C64.4461 241.732 64.7256 241.544 65.0678 241.425V241.408C64.7896 241.297 64.5601 241.12 64.3793 240.878C64.1985 240.633 64.1081 240.334 64.1081 239.981C64.1081 239.5 64.3 239.107 64.6839 238.804C65.0678 238.498 65.5616 238.345 66.1653 238.345C66.7662 238.345 67.2558 238.498 67.6341 238.804C68.0125 239.11 68.2016 239.501 68.2016 239.977C68.2016 240.333 68.1112 240.632 67.9304 240.874C67.7496 241.113 67.5228 241.291 67.2502 241.408V241.425C67.5952 241.541 67.8734 241.728 68.0848 241.984C68.299 242.24 68.4061 242.55 68.4061 242.914C68.4061 243.465 68.1975 243.896 67.7802 244.208C67.3629 244.517 66.8246 244.671 66.1653 244.671C65.5032 244.671 64.9607 244.517 64.5379 244.208C64.1178 243.896 63.9078 243.465 63.9078 242.914ZM65.1054 242.856C65.1054 243.145 65.1958 243.38 65.3766 243.561C65.5574 243.739 65.8203 243.828 66.1653 243.828C66.5102 243.828 66.7703 243.739 66.9456 243.561C67.1209 243.38 67.2085 243.145 67.2085 242.856C67.2085 242.558 67.1209 242.318 66.9456 242.134C66.7703 241.95 66.5102 241.859 66.1653 241.859C65.8203 241.859 65.5574 241.95 65.3766 242.134C65.1958 242.318 65.1054 242.558 65.1054 242.856ZM65.2765 240.089C65.2765 240.359 65.3516 240.582 65.5018 240.757C65.652 240.929 65.8732 241.016 66.1653 241.016C66.4574 241.016 66.6758 240.929 66.8204 240.757C66.9679 240.582 67.0416 240.359 67.0416 240.089C67.0416 239.828 66.9679 239.612 66.8204 239.443C66.673 239.273 66.4546 239.188 66.1653 239.188C65.876 239.188 65.6548 239.273 65.5018 239.443C65.3516 239.612 65.2765 239.828 65.2765 240.089Z" fill="white"/>
<rect x="443.451" y="449.4" width="17.092" height="17.092" rx="8.54599" fill="#C5C5C5"/>
<path d="M447.967 460.946L450.279 455.864H447.133V454.871H451.502V455.588L449.19 460.946H447.967ZM454.299 460.946V456.018L452.764 456.627V455.609L454.955 454.8H455.485V460.946H454.299Z" fill="white"/>
<rect x="512" y="371" width="17.092" height="17.092" rx="8.54599" fill="#C5C5C5"/>
<path d="M516.516 382.546L518.828 377.463H515.682V376.47H520.051V377.188L517.739 382.546H516.516ZM520.941 382.546V381.791L523.311 379.45C523.57 379.191 523.764 378.954 523.891 378.74C524.019 378.523 524.083 378.297 524.083 378.06C524.083 377.815 524.001 377.615 523.837 377.459C523.676 377.303 523.452 377.226 523.165 377.226C522.871 377.223 522.63 377.316 522.443 377.505C522.257 377.691 522.156 377.961 522.139 378.315V378.365H520.937V378.315C520.937 377.728 521.149 377.253 521.571 376.892C521.994 376.527 522.527 376.345 523.17 376.345C523.823 376.345 524.338 376.506 524.714 376.829C525.092 377.152 525.281 377.547 525.281 378.014C525.281 378.395 525.179 378.742 524.976 379.053C524.773 379.365 524.502 379.686 524.163 380.017L522.51 381.632H525.435V382.546H520.941Z" fill="white"/>
<rect x="134" y="191" width="17.092" height="17.092" rx="8.54599" fill="#00B3FF"/>
<path d="M137.686 200.952V200.885H138.871V200.948C138.871 201.215 138.96 201.425 139.138 201.578C139.316 201.728 139.573 201.803 139.91 201.803C140.235 201.803 140.491 201.703 140.678 201.503C140.867 201.3 140.961 201.001 140.961 200.606C140.961 200.202 140.87 199.906 140.686 199.717C140.502 199.528 140.249 199.433 139.927 199.433C139.687 199.433 139.48 199.479 139.305 199.571C139.132 199.662 138.981 199.782 138.85 199.93L137.928 199.55L138.237 196.47H141.846V197.43H139.188L139.042 198.874C139.187 198.785 139.351 198.712 139.534 198.657C139.718 198.598 139.931 198.569 140.173 198.569C140.724 198.569 141.192 198.749 141.579 199.107C141.968 199.464 142.163 199.96 142.163 200.597C142.163 201.24 141.949 201.746 141.521 202.116C141.095 202.486 140.558 202.671 139.91 202.671C139.22 202.671 138.676 202.508 138.278 202.183C137.883 201.855 137.686 201.444 137.686 200.952ZM142.87 200.005V199.879C142.87 198.822 143.19 197.975 143.83 197.338C144.473 196.701 145.424 196.383 146.684 196.383H146.772V197.301H146.684C145.838 197.301 145.186 197.497 144.727 197.889C144.268 198.278 144.039 198.922 144.039 199.821L144.047 200.025C144.047 200.679 144.154 201.141 144.368 201.411C144.585 201.678 144.865 201.811 145.207 201.811C145.546 201.811 145.811 201.706 146 201.494C146.189 201.28 146.284 200.98 146.284 200.593C146.284 200.206 146.192 199.907 146.008 199.696C145.827 199.484 145.566 199.379 145.224 199.379C144.909 199.379 144.631 199.482 144.389 199.687C144.147 199.893 144.026 200.187 144.026 200.568H143.592C143.592 199.956 143.759 199.462 144.093 199.087C144.427 198.708 144.877 198.519 145.445 198.519C146.062 198.519 146.556 198.707 146.926 199.082C147.299 199.455 147.485 199.95 147.485 200.568C147.485 201.186 147.271 201.69 146.843 202.083C146.414 202.475 145.87 202.671 145.211 202.671C144.557 202.671 144.004 202.464 143.55 202.049C143.097 201.632 142.87 200.95 142.87 200.005Z" fill="white"/>
<rect x="429" y="181" width="17.092" height="17.092" rx="8.54599" fill="#00B3FF"/>
<path d="M435.436 192.546V190.885V190.672V187.993H435.386L433.717 190.313H435.669L435.982 190.255H437.376V191.202H432.548V190.434L435.473 186.47H436.604V192.546H435.436ZM437.983 190.459V188.557C437.983 187.897 438.169 187.365 438.542 186.958C438.918 186.55 439.455 186.345 440.153 186.345C440.846 186.345 441.381 186.55 441.759 186.958C442.141 187.365 442.331 187.897 442.331 188.557V190.459C442.331 191.119 442.141 191.653 441.759 192.062C441.381 192.468 440.846 192.671 440.153 192.671C439.455 192.671 438.918 192.468 438.542 192.062C438.169 191.653 437.983 191.119 437.983 190.459ZM439.193 190.505C439.193 190.878 439.265 191.186 439.41 191.428C439.558 191.67 439.805 191.791 440.153 191.791C440.503 191.791 440.752 191.67 440.9 191.428C441.047 191.186 441.121 190.878 441.121 190.505V188.507C441.121 188.137 441.047 187.831 440.9 187.589C440.752 187.347 440.503 187.226 440.153 187.226C439.805 187.226 439.558 187.347 439.41 187.589C439.265 187.831 439.193 188.137 439.193 188.507V190.505Z" fill="white"/>
<rect x="393" y="419" width="17.092" height="17.092" rx="8.54599" fill="#00B3FF"/>
<path d="M401.237 430.546V425.618L399.702 426.227V425.209L401.892 424.399H402.422V430.546H401.237Z" fill="white"/>
<rect x="187.072" y="432.309" width="17.092" height="17.092" rx="8.54599" fill="#00B3FF"/>
<path d="M193.319 442.19V442.144H194.508V442.19C194.508 442.482 194.601 442.708 194.788 442.87C194.977 443.031 195.245 443.112 195.593 443.112C195.902 443.112 196.156 443.031 196.357 442.87C196.557 442.706 196.657 442.454 196.657 442.114C196.657 441.783 196.543 441.534 196.315 441.367C196.09 441.201 195.798 441.117 195.439 441.117H194.813V440.27H195.397C195.722 440.27 195.981 440.191 196.173 440.032C196.365 439.871 196.461 439.648 196.461 439.365C196.461 439.078 196.378 438.867 196.211 438.73C196.047 438.591 195.839 438.522 195.589 438.522C195.302 438.522 195.077 438.593 194.913 438.734C194.752 438.876 194.671 439.081 194.671 439.348V439.39H193.477V439.348C193.477 438.883 193.671 438.485 194.058 438.154C194.447 437.821 194.959 437.654 195.593 437.654C196.275 437.654 196.789 437.808 197.137 438.117C197.488 438.423 197.663 438.814 197.663 439.289C197.663 439.568 197.584 439.829 197.425 440.074C197.269 440.319 197.02 440.513 196.678 440.658V440.675C197.042 440.767 197.332 440.94 197.546 441.196C197.763 441.452 197.872 441.769 197.872 442.148C197.872 442.718 197.653 443.166 197.216 443.491C196.78 443.817 196.239 443.98 195.593 443.98C194.867 443.98 194.306 443.811 193.911 443.475C193.516 443.138 193.319 442.71 193.319 442.19Z" fill="white"/>
<rect x="112" y="309" width="17.092" height="17.092" rx="8.54599" fill="#00B3FF"/>
<path d="M115.648 318.005V317.879C115.648 316.822 115.968 315.975 116.608 315.338C117.251 314.701 118.202 314.383 119.462 314.383H119.55V315.301H119.462C118.616 315.301 117.964 315.497 117.505 315.889C117.046 316.278 116.817 316.922 116.817 317.821L116.825 318.025C116.825 318.679 116.932 319.141 117.146 319.411C117.363 319.678 117.643 319.811 117.985 319.811C118.324 319.811 118.589 319.706 118.778 319.494C118.967 319.28 119.062 318.98 119.062 318.593C119.062 318.206 118.97 317.907 118.786 317.696C118.605 317.484 118.344 317.379 118.002 317.379C117.687 317.379 117.409 317.482 117.167 317.687C116.925 317.893 116.804 318.187 116.804 318.568H116.37C116.37 317.956 116.537 317.462 116.871 317.087C117.205 316.708 117.655 316.519 118.223 316.519C118.84 316.519 119.334 316.707 119.704 317.082C120.077 317.455 120.263 317.95 120.263 318.568C120.263 319.186 120.049 319.69 119.621 320.083C119.192 320.475 118.648 320.671 117.989 320.671C117.335 320.671 116.782 320.464 116.328 320.049C115.875 319.632 115.648 318.95 115.648 318.005ZM120.983 318.459V316.557C120.983 315.897 121.169 315.365 121.542 314.958C121.918 314.55 122.455 314.345 123.153 314.345C123.845 314.345 124.381 314.55 124.759 314.958C125.14 315.365 125.331 315.897 125.331 316.557V318.459C125.331 319.119 125.14 319.653 124.759 320.062C124.381 320.468 123.845 320.671 123.153 320.671C122.455 320.671 121.918 320.468 121.542 320.062C121.169 319.653 120.983 319.119 120.983 318.459ZM122.193 318.505C122.193 318.878 122.265 319.186 122.41 319.428C122.557 319.67 122.805 319.791 123.153 319.791C123.503 319.791 123.752 319.67 123.9 319.428C124.047 319.186 124.121 318.878 124.121 318.505V316.507C124.121 316.137 124.047 315.831 123.9 315.589C123.752 315.347 123.503 315.226 123.153 315.226C122.805 315.226 122.557 315.347 122.41 315.589C122.265 315.831 122.193 316.137 122.193 316.507V318.505Z" fill="white"/>
<path d="M40.3233 547L38.1533 538.796L36.1233 547H34.4433L31.7833 537.2H33.1553L35.2693 545.446L37.3133 537.2H38.9933L41.1773 545.46L43.1793 537.2H44.5233L42.0033 547H40.3233ZM48.0222 547.112C46.1462 547.112 44.8722 545.838 44.8722 543.766V543.234C44.8722 541.19 46.1742 539.888 48.0222 539.888C49.8842 539.888 51.1722 541.176 51.1722 543.234V543.906H46.1882C46.2302 545.264 46.9722 545.964 48.0222 545.964C49.1282 545.964 49.5342 545.558 49.8142 544.83H51.1022C50.8222 546.202 49.9122 547.112 48.0222 547.112ZM48.0222 541.036C47.0282 541.036 46.3282 541.624 46.2022 542.814H49.8282C49.7162 541.582 49.0722 541.036 48.0222 541.036ZM56.2547 547.112C55.2467 547.112 54.4487 546.748 53.9587 546.006L53.8327 547H52.8527V537.2H54.1127V540.812C54.6027 540.196 55.3447 539.888 56.2547 539.888C57.8367 539.888 59.0127 541.064 59.0127 543.234V543.766C59.0127 545.922 57.8227 547.112 56.2547 547.112ZM55.9047 545.908C57.0107 545.908 57.6967 545.208 57.6967 543.766V543.234C57.6967 541.792 56.9967 541.092 55.9047 541.092C54.8967 541.092 54.1407 541.806 54.1127 543.136V543.766C54.1127 545.152 54.8687 545.908 55.9047 545.908Z" fill="#8F8F8F"/>
<path d="M37.2938 51V41.2H40.4438C42.8938 41.2 43.8738 42.18 43.8738 43.818C43.8738 44.714 43.4678 45.456 42.6138 45.904C43.6638 46.324 44.1538 47.164 44.1538 48.242C44.1538 50.02 43.1738 51 40.7238 51H37.2938ZM40.7238 46.548H38.6098V49.796H40.7238C42.2358 49.796 42.7818 49.25 42.7818 48.172C42.7818 47.094 42.2358 46.548 40.7238 46.548ZM40.4438 42.404H38.6098V45.372H40.4438C41.9558 45.372 42.5018 44.826 42.5018 43.888C42.5018 42.95 41.9558 42.404 40.4438 42.404ZM47.6555 51.112C46.1995 51.112 45.4155 50.328 45.4155 49.04C45.4155 47.612 46.2695 46.758 48.4955 46.758H49.8955V46.24C49.8955 45.456 49.4475 45.008 48.4955 45.008C47.5575 45.008 47.1655 45.4 47.0955 45.96H45.6955C45.7655 44.77 46.6475 43.888 48.4955 43.888C50.2455 43.888 51.1555 44.798 51.1555 46.24V51H50.1755L50.0215 49.852C49.5175 50.65 48.6775 51.112 47.6555 51.112ZM47.7955 49.992C49.0135 49.992 49.8955 49.11 49.8955 48.074V47.822H48.4955C47.2075 47.822 46.7315 48.298 46.7315 49.012C46.7315 49.6 47.1235 49.992 47.7955 49.992ZM55.9089 51.112C53.9769 51.112 52.7589 49.894 52.7589 47.766V47.234C52.7589 45.12 53.9909 43.888 55.9089 43.888C57.5469 43.888 58.4989 44.84 58.7789 46.03H57.4349C57.2249 45.54 56.7769 45.092 55.8389 45.092C54.7889 45.092 54.0749 45.806 54.0749 47.234V47.766C54.0749 49.18 54.8029 49.908 55.8389 49.908C56.7909 49.908 57.2249 49.474 57.4349 48.83H58.7789C58.4989 50.174 57.5469 51.112 55.9089 51.112ZM64.5873 51L62.5993 47.99L61.5073 49.334V51H60.2473V41.2H61.5073V47.598L64.3353 44H65.8473L63.4253 47.066L66.1273 51H64.5873ZM66.4034 47.962V46.758H70.7434V47.962H66.4034ZM75.1589 51.112C73.2829 51.112 72.0089 49.838 72.0089 47.766V47.234C72.0089 45.19 73.3109 43.888 75.1589 43.888C77.0209 43.888 78.3089 45.176 78.3089 47.234V47.906H73.3249C73.3669 49.264 74.1089 49.964 75.1589 49.964C76.2649 49.964 76.6709 49.558 76.9509 48.83H78.2389C77.9589 50.202 77.0489 51.112 75.1589 51.112ZM75.1589 45.036C74.1649 45.036 73.4649 45.624 73.3389 46.814H76.9649C76.8529 45.582 76.2089 45.036 75.1589 45.036ZM79.9895 51V44H80.9695L81.0955 44.966C81.5855 44.28 82.3695 43.888 83.3495 43.888C84.9595 43.888 86.0095 44.938 86.0095 46.87V51H84.7495V46.87C84.7495 45.68 84.1615 45.092 83.1395 45.092C82.0055 45.092 81.2775 45.792 81.2495 46.8V51H79.9895ZM90.3802 51.112C88.7842 51.112 87.6222 49.95 87.6222 47.766V47.234C87.6222 45.064 88.7982 43.888 90.3942 43.888C91.2902 43.888 92.0182 44.196 92.5222 44.812V41.2H93.7822V51H92.8022L92.6622 50.006C92.1722 50.748 91.3742 51.112 90.3802 51.112ZM90.7302 49.908C91.7382 49.908 92.4802 49.194 92.5222 47.878V47.136C92.4802 45.806 91.7382 45.092 90.7302 45.092C89.6242 45.092 88.9382 45.778 88.9382 47.234V47.766C88.9382 49.194 89.6382 49.908 90.7302 49.908Z" fill="#8F8F8F"/>
<path d="M219.525 358.202L230.445 376.243H208.605L219.525 358.202Z" fill="#5424F5"/>
<path d="M215.548 374.521L218.103 368.883H214.639V367.77H219.48V368.591L216.93 374.521H215.548ZM220.465 374.521V373.682L223.042 371.076C223.327 370.789 223.54 370.526 223.682 370.288C223.824 370.047 223.896 369.796 223.896 369.537C223.896 369.271 223.809 369.053 223.636 368.883C223.463 368.713 223.222 368.628 222.913 368.628C222.594 368.625 222.335 368.725 222.134 368.929C221.936 369.133 221.829 369.43 221.814 369.82V369.889H220.46V369.815C220.46 369.166 220.69 368.64 221.151 368.239C221.611 367.834 222.199 367.631 222.913 367.631C223.645 367.631 224.217 367.81 224.628 368.169C225.042 368.524 225.249 368.963 225.249 369.486C225.249 369.915 225.135 370.303 224.906 370.65C224.681 370.993 224.382 371.348 224.011 371.716L222.231 373.492H225.416V374.521H220.465Z" fill="white"/>
<path d="M352.525 218.89L341.605 200.849L363.445 200.849L352.525 218.89Z" fill="#5424F5"/>
<path d="M349.786 210.521V205.064L348.098 205.727V204.586L350.514 203.691H351.121V210.521H349.786ZM353.506 208.198V206.093C353.506 205.357 353.712 204.764 354.123 204.313C354.537 203.858 355.131 203.631 355.903 203.631C356.673 203.631 357.266 203.858 357.684 204.313C358.104 204.764 358.314 205.357 358.314 206.093V208.198C358.314 208.934 358.104 209.529 357.684 209.983C357.266 210.434 356.673 210.66 355.903 210.66C355.131 210.66 354.537 210.434 354.123 209.983C353.712 209.529 353.506 208.934 353.506 208.198ZM354.869 208.263C354.869 208.671 354.948 209.006 355.106 209.269C355.264 209.532 355.531 209.663 355.908 209.663C356.282 209.663 356.548 209.532 356.705 209.269C356.866 209.006 356.947 208.671 356.947 208.263V206.028C356.947 205.62 356.866 205.285 356.705 205.022C356.548 204.759 356.282 204.628 355.908 204.628C355.531 204.628 355.264 204.759 355.106 205.022C354.948 205.285 354.869 205.62 354.869 206.028V208.263Z" fill="white"/>
<path d="M277.205 299.97L276.143 296.784H271.373L270.329 299.97H268.061L272.561 287.37H275.081L279.581 299.97H277.205ZM272.921 292.122L272.003 294.876H275.513L274.613 292.122L273.767 289.53L272.921 292.122ZM283.696 300.132C281.608 300.132 280.132 298.674 280.132 295.758V295.182C280.132 292.32 281.644 290.808 283.696 290.808C284.794 290.808 285.694 291.168 286.324 291.87V287.37H288.412V299.97H286.774L286.576 298.764C285.946 299.682 284.938 300.132 283.696 300.132ZM284.326 298.188C285.442 298.188 286.27 297.396 286.324 295.884V295.182C286.324 293.598 285.478 292.752 284.326 292.752C283.066 292.752 282.328 293.472 282.328 295.182V295.758C282.328 297.414 283.102 298.188 284.326 298.188ZM294.524 300.132C291.824 300.132 290.204 298.512 290.204 295.758V295.182C290.204 292.464 291.86 290.808 294.524 290.808C297.224 290.808 298.844 292.428 298.844 295.182V295.758C298.844 298.476 297.188 300.132 294.524 300.132ZM294.524 298.188C295.874 298.188 296.648 297.414 296.648 295.758V295.182C296.648 293.562 295.838 292.752 294.524 292.752C293.174 292.752 292.4 293.526 292.4 295.182V295.758C292.4 297.378 293.21 298.188 294.524 298.188ZM305.357 300.132C304.259 300.132 303.359 299.79 302.729 299.07V303.57H300.641V290.97H302.279L302.477 292.194C303.107 291.258 304.097 290.808 305.357 290.808C307.427 290.808 308.921 292.302 308.921 295.182V295.758C308.921 298.62 307.409 300.132 305.357 300.132ZM304.727 298.188C305.987 298.188 306.725 297.45 306.725 295.758V295.182C306.725 293.526 305.951 292.752 304.727 292.752C303.593 292.752 302.765 293.562 302.729 295.074V295.758C302.729 297.342 303.575 298.188 304.727 298.188ZM309.633 292.806V290.97H311.253V288.45H313.341V290.97H315.573V292.806H313.341V296.784C313.341 297.72 313.755 298.134 314.601 298.134H315.753V299.97H314.223C312.315 299.97 311.253 298.908 311.253 297V292.806H309.633Z" fill="#1CDB74"/>
<rect x="325" y="307" width="17.092" height="17.092" rx="8.54599" fill="#49EB94"/>
<path d="M328.686 316.952V316.885H329.871V316.948C329.871 317.215 329.96 317.425 330.138 317.578C330.316 317.728 330.573 317.803 330.91 317.803C331.235 317.803 331.491 317.703 331.678 317.503C331.867 317.3 331.961 317.001 331.961 316.606C331.961 316.202 331.87 315.906 331.686 315.717C331.502 315.528 331.249 315.433 330.927 315.433C330.687 315.433 330.48 315.479 330.305 315.571C330.132 315.662 329.981 315.782 329.85 315.93L328.928 315.55L329.237 312.47H332.846V313.43H330.188L330.042 314.874C330.187 314.785 330.351 314.712 330.534 314.657C330.718 314.598 330.931 314.569 331.173 314.569C331.724 314.569 332.192 314.749 332.579 315.107C332.968 315.464 333.163 315.96 333.163 316.597C333.163 317.24 332.949 317.746 332.521 318.116C332.095 318.486 331.558 318.671 330.91 318.671C330.22 318.671 329.676 318.508 329.278 318.183C328.883 317.855 328.686 317.444 328.686 316.952ZM333.87 316.005V315.879C333.87 314.822 334.19 313.975 334.83 313.338C335.473 312.701 336.424 312.383 337.684 312.383H337.772V313.301H337.684C336.838 313.301 336.186 313.497 335.727 313.889C335.268 314.278 335.039 314.922 335.039 315.821L335.047 316.025C335.047 316.679 335.154 317.141 335.368 317.411C335.585 317.678 335.865 317.811 336.207 317.811C336.546 317.811 336.811 317.706 337 317.494C337.189 317.28 337.284 316.98 337.284 316.593C337.284 316.206 337.192 315.907 337.008 315.696C336.827 315.484 336.566 315.379 336.224 315.379C335.909 315.379 335.631 315.482 335.389 315.687C335.147 315.893 335.026 316.187 335.026 316.568H334.592C334.592 315.956 334.759 315.462 335.093 315.087C335.427 314.708 335.877 314.519 336.445 314.519C337.062 314.519 337.556 314.707 337.926 315.082C338.299 315.455 338.485 315.95 338.485 316.568C338.485 317.186 338.271 317.69 337.843 318.083C337.414 318.475 336.87 318.671 336.211 318.671C335.557 318.671 335.004 318.464 334.55 318.049C334.097 317.632 333.87 316.95 333.87 316.005Z" fill="white"/>
<rect x="331" y="289" width="17.092" height="17.092" rx="8.54599" fill="#49EB94"/>
<path d="M334.686 298.952V298.885H335.871V298.948C335.871 299.215 335.96 299.425 336.138 299.578C336.316 299.728 336.573 299.803 336.91 299.803C337.235 299.803 337.491 299.703 337.678 299.503C337.867 299.3 337.961 299.001 337.961 298.606C337.961 298.202 337.87 297.906 337.686 297.717C337.502 297.528 337.249 297.433 336.927 297.433C336.687 297.433 336.48 297.479 336.305 297.571C336.132 297.662 335.981 297.782 335.85 297.93L334.928 297.55L335.237 294.47H338.846V295.43H336.188L336.042 296.874C336.187 296.785 336.351 296.712 336.534 296.657C336.718 296.598 336.931 296.569 337.173 296.569C337.724 296.569 338.192 296.749 338.579 297.107C338.968 297.464 339.163 297.96 339.163 298.597C339.163 299.24 338.949 299.746 338.521 300.116C338.095 300.486 337.558 300.671 336.91 300.671C336.22 300.671 335.676 300.508 335.278 300.183C334.883 299.855 334.686 299.444 334.686 298.952ZM339.87 298.005V297.879C339.87 296.822 340.19 295.975 340.83 295.338C341.473 294.701 342.424 294.383 343.684 294.383H343.772V295.301H343.684C342.838 295.301 342.186 295.497 341.727 295.889C341.268 296.278 341.039 296.922 341.039 297.821L341.047 298.025C341.047 298.679 341.154 299.141 341.368 299.411C341.585 299.678 341.865 299.811 342.207 299.811C342.546 299.811 342.811 299.706 343 299.494C343.189 299.28 343.284 298.98 343.284 298.593C343.284 298.206 343.192 297.907 343.008 297.696C342.827 297.484 342.566 297.379 342.224 297.379C341.909 297.379 341.631 297.482 341.389 297.687C341.147 297.893 341.026 298.187 341.026 298.568H340.592C340.592 297.956 340.759 297.462 341.093 297.087C341.427 296.708 341.877 296.519 342.445 296.519C343.062 296.519 343.556 296.707 343.926 297.082C344.299 297.455 344.485 297.95 344.485 298.568C344.485 299.186 344.271 299.69 343.843 300.083C343.414 300.475 342.87 300.671 342.211 300.671C341.557 300.671 341.004 300.464 340.55 300.049C340.097 299.632 339.87 298.95 339.87 298.005Z" fill="white"/>
<rect x="278" y="259" width="17.092" height="17.092" rx="8.54599" fill="#49EB94"/>
<path d="M281.686 268.952V268.885H282.871V268.948C282.871 269.215 282.96 269.425 283.138 269.578C283.316 269.728 283.573 269.803 283.91 269.803C284.235 269.803 284.491 269.703 284.678 269.503C284.867 269.3 284.961 269.001 284.961 268.606C284.961 268.202 284.87 267.906 284.686 267.717C284.502 267.528 284.249 267.433 283.927 267.433C283.687 267.433 283.48 267.479 283.305 267.571C283.132 267.662 282.981 267.782 282.85 267.93L281.928 267.55L282.237 264.47H285.846V265.43H283.188L283.042 266.874C283.187 266.785 283.351 266.712 283.534 266.657C283.718 266.598 283.931 266.569 284.173 266.569C284.724 266.569 285.192 266.749 285.579 267.107C285.968 267.464 286.163 267.96 286.163 268.597C286.163 269.24 285.949 269.746 285.521 270.116C285.095 270.486 284.558 270.671 283.91 270.671C283.22 270.671 282.676 270.508 282.278 270.183C281.883 269.855 281.686 269.444 281.686 268.952ZM286.87 268.005V267.879C286.87 266.822 287.19 265.975 287.83 265.338C288.473 264.701 289.424 264.383 290.684 264.383H290.772V265.301H290.684C289.838 265.301 289.186 265.497 288.727 265.889C288.268 266.278 288.039 266.922 288.039 267.821L288.047 268.025C288.047 268.679 288.154 269.141 288.368 269.411C288.585 269.678 288.865 269.811 289.207 269.811C289.546 269.811 289.811 269.706 290 269.494C290.189 269.28 290.284 268.98 290.284 268.593C290.284 268.206 290.192 267.907 290.008 267.696C289.827 267.484 289.566 267.379 289.224 267.379C288.909 267.379 288.631 267.482 288.389 267.687C288.147 267.893 288.026 268.187 288.026 268.568H287.592C287.592 267.956 287.759 267.462 288.093 267.087C288.427 266.708 288.877 266.519 289.445 266.519C290.062 266.519 290.556 266.707 290.926 267.082C291.299 267.455 291.485 267.95 291.485 268.568C291.485 269.186 291.271 269.69 290.843 270.083C290.414 270.475 289.87 270.671 289.211 270.671C288.557 270.671 288.004 270.464 287.55 270.049C287.097 269.632 286.87 268.95 286.87 268.005Z" fill="white"/>
<rect x="297.221" y="306.018" width="17.092" height="17.092" rx="8.54599" fill="#49EB94"/>
<path d="M300.906 315.969V315.903H302.091V315.965C302.091 316.232 302.181 316.442 302.359 316.595C302.537 316.746 302.794 316.821 303.131 316.821C303.456 316.821 303.712 316.721 303.898 316.52C304.088 316.317 304.182 316.018 304.182 315.623C304.182 315.22 304.09 314.923 303.907 314.734C303.723 314.545 303.47 314.451 303.147 314.451C302.908 314.451 302.701 314.496 302.525 314.588C302.353 314.68 302.201 314.8 302.071 314.947L301.148 314.567L301.457 311.488H305.067V312.448H302.409L302.263 313.891C302.407 313.802 302.571 313.73 302.755 313.674C302.939 313.616 303.151 313.587 303.393 313.587C303.944 313.587 304.413 313.766 304.8 314.125C305.189 314.481 305.384 314.978 305.384 315.615C305.384 316.257 305.17 316.764 304.741 317.134C304.316 317.504 303.779 317.689 303.131 317.689C302.441 317.689 301.897 317.526 301.499 317.2C301.104 316.872 300.906 316.462 300.906 315.969ZM306.091 315.022V314.897C306.091 313.84 306.411 312.993 307.051 312.356C307.693 311.719 308.645 311.4 309.905 311.4H309.993V312.318H309.905C309.059 312.318 308.407 312.514 307.948 312.907C307.489 313.296 307.259 313.94 307.259 314.839L307.268 315.043C307.268 315.697 307.375 316.159 307.589 316.428C307.806 316.696 308.086 316.829 308.428 316.829C308.767 316.829 309.031 316.723 309.221 316.512C309.41 316.298 309.504 315.997 309.504 315.611C309.504 315.224 309.413 314.925 309.229 314.713C309.048 314.502 308.787 314.396 308.444 314.396C308.13 314.396 307.852 314.499 307.61 314.705C307.368 314.911 307.247 315.204 307.247 315.586H306.813C306.813 314.974 306.98 314.48 307.314 314.104C307.647 313.726 308.098 313.537 308.666 313.537C309.283 313.537 309.777 313.724 310.147 314.1C310.52 314.473 310.706 314.968 310.706 315.586C310.706 316.203 310.492 316.708 310.063 317.1C309.635 317.493 309.091 317.689 308.432 317.689C307.778 317.689 307.225 317.481 306.771 317.067C306.318 316.65 306.091 315.968 306.091 315.022Z" fill="white"/>
<rect x="292" y="238" width="17.092" height="17.092" rx="8.54599" fill="#49EB94"/>
<path d="M300.237 249.546V244.618L298.701 245.227V244.209L300.892 243.399H301.422V249.546H300.237Z" fill="white"/>
<path d="M276.244 124.445L275.182 121.259H270.412L269.368 124.445H267.1L271.6 111.845H274.12L278.62 124.445H276.244ZM271.96 116.597L271.042 119.351H274.552L273.652 116.597L272.806 114.005L271.96 116.597ZM282.952 124.607C280.504 124.607 279.352 123.455 279.172 121.475H281.368C281.548 122.501 281.926 122.879 282.952 122.879C284.158 122.879 284.536 122.501 284.536 121.925C284.536 119.945 279.352 121.439 279.352 117.929C279.352 116.435 280.504 115.283 282.952 115.283C285.238 115.283 286.372 116.417 286.552 118.325H284.356C284.176 117.353 283.834 117.011 282.952 117.011C281.926 117.011 281.548 117.389 281.548 117.875C281.548 119.657 286.732 118.163 286.732 121.871C286.732 123.455 285.58 124.607 282.952 124.607ZM291.776 124.607C289.328 124.607 288.176 123.455 287.996 121.475H290.192C290.372 122.501 290.75 122.879 291.776 122.879C292.982 122.879 293.36 122.501 293.36 121.925C293.36 119.945 288.176 121.439 288.176 117.929C288.176 116.435 289.328 115.283 291.776 115.283C294.062 115.283 295.196 116.417 295.376 118.325H293.18C293 117.353 292.658 117.011 291.776 117.011C290.75 117.011 290.372 117.389 290.372 117.875C290.372 119.657 295.556 118.163 295.556 121.871C295.556 123.455 294.404 124.607 291.776 124.607ZM301.05 124.607C298.476 124.607 296.82 122.951 296.82 120.233V119.657C296.82 116.939 298.476 115.283 301.05 115.283C303.66 115.283 305.28 116.975 305.28 119.945V120.647H298.908C299.016 122.141 299.772 122.771 301.05 122.771C302.328 122.771 302.85 122.249 303.03 121.655H305.19C304.83 123.347 303.57 124.607 301.05 124.607ZM301.05 117.119C299.844 117.119 299.124 117.695 298.944 118.991H303.156C302.994 117.659 302.274 117.119 301.05 117.119ZM310.321 124.607C307.873 124.607 306.721 123.455 306.541 121.475H308.737C308.917 122.501 309.295 122.879 310.321 122.879C311.527 122.879 311.905 122.501 311.905 121.925C311.905 119.945 306.721 121.439 306.721 117.929C306.721 116.435 307.873 115.283 310.321 115.283C312.607 115.283 313.741 116.417 313.921 118.325H311.725C311.545 117.353 311.203 117.011 310.321 117.011C309.295 117.011 308.917 117.389 308.917 117.875C308.917 119.657 314.101 118.163 314.101 121.871C314.101 123.455 312.949 124.607 310.321 124.607ZM319.145 124.607C316.697 124.607 315.545 123.455 315.365 121.475H317.561C317.741 122.501 318.119 122.879 319.145 122.879C320.351 122.879 320.729 122.501 320.729 121.925C320.729 119.945 315.545 121.439 315.545 117.929C315.545 116.435 316.697 115.283 319.145 115.283C321.431 115.283 322.565 116.417 322.745 118.325H320.549C320.369 117.353 320.027 117.011 319.145 117.011C318.119 117.011 317.741 117.389 317.741 117.875C317.741 119.657 322.925 118.163 322.925 121.871C322.925 123.455 321.773 124.607 319.145 124.607Z" fill="#00B3FF"/>
<rect x="267" y="33" width="63.6202" height="21.8398" rx="10.9199" fill="white"/>
<path d="M289.23 49.9199V44.3939H283.29V49.9199H281.13V37.3199H283.29V42.4859H289.23V37.3199H291.39V49.9199H289.23ZM297.599 50.0819C294.899 50.0819 293.279 48.4619 293.279 45.7079V45.1319C293.279 42.4139 294.935 40.7579 297.599 40.7579C300.299 40.7579 301.919 42.3779 301.919 45.1319V45.7079C301.919 48.4259 300.263 50.0819 297.599 50.0819ZM297.599 48.1379C298.949 48.1379 299.723 47.3639 299.723 45.7079V45.1319C299.723 43.5119 298.913 42.7019 297.599 42.7019C296.249 42.7019 295.475 43.4759 295.475 45.1319V45.7079C295.475 47.3279 296.285 48.1379 297.599 48.1379ZM306.667 49.9199C304.777 49.9199 303.715 48.8579 303.715 46.9499V37.3199H305.803V46.7339C305.803 47.6699 306.217 48.0839 307.045 48.0839H307.495V49.9199H306.667ZM311.872 50.0819C309.784 50.0819 308.308 48.6239 308.308 45.7079V45.1319C308.308 42.2699 309.82 40.7579 311.872 40.7579C312.97 40.7579 313.87 41.1179 314.5 41.8199V37.3199H316.588V49.9199H314.95L314.752 48.7139C314.122 49.6319 313.114 50.0819 311.872 50.0819ZM312.502 48.1379C313.618 48.1379 314.446 47.3459 314.5 45.8339V45.1319C314.5 43.5479 313.654 42.7019 312.502 42.7019C311.242 42.7019 310.504 43.4219 310.504 45.1319V45.7079C310.504 47.3639 311.278 48.1379 312.502 48.1379Z" fill="#C5C5C5"/>
<rect x="270" y="183" width="45" height="21.8398" rx="10.9199" fill="white"/>
<path d="M275.842 189.228V187.32H285.742V189.228H281.872V199.92H279.712V189.228H275.842ZM284.67 199.92V190.92H286.308L286.47 191.928C287.1 191.172 288.054 190.758 289.17 190.758H290.07V192.702H289.17C287.532 192.702 286.758 193.476 286.758 194.7V199.92H284.67ZM291.598 199.92V190.92H293.686V199.92H291.598ZM292.642 189.84C291.886 189.84 291.292 189.246 291.292 188.49C291.292 187.734 291.886 187.14 292.642 187.14C293.38 187.14 293.992 187.734 293.992 188.49C293.992 189.246 293.38 189.84 292.642 189.84ZM298.453 200.082C296.509 200.082 295.483 199.056 295.483 197.364C295.483 195.474 296.617 194.34 299.623 194.34H301.135V193.8C301.135 192.936 300.685 192.486 299.623 192.486C298.615 192.486 298.201 192.9 298.111 193.53H295.843C295.933 191.928 297.103 190.758 299.623 190.758C302.017 190.758 303.223 191.964 303.223 193.8V199.92H301.585L301.369 198.678C300.739 199.578 299.713 200.082 298.453 200.082ZM298.813 198.354C300.145 198.354 301.135 197.364 301.135 196.23V195.96H299.623C298.201 195.96 297.679 196.482 297.679 197.292C297.679 197.94 298.093 198.354 298.813 198.354ZM308.417 199.92C306.527 199.92 305.465 198.858 305.465 196.95V187.32H307.553V196.734C307.553 197.67 307.967 198.084 308.795 198.084H309.245V199.92H308.417Z" fill="#5424F5"/>
</svg>
